<svg width="173" height="209" viewBox="0 0 173 209" fill="none" xmlns="http://www.w3.org/2000/svg">
<g clip-path="url(#clip0_3379_6985)">
<path d="M156.489 107.56L154.625 106.322L156.489 107.562C156.517 107.627 156.562 107.621 156.624 107.551C156.582 107.548 156.537 107.551 156.489 107.56Z" fill="#353011"/>
<path d="M153.522 108.565C153.025 108.303 151.866 107.818 150.69 107.307L64.8052 107.459C64.5076 108.289 64.1736 110.17 64.0866 110.706C59.9943 136.442 74.9405 156.942 101.844 157.975C104.488 158.079 107.48 158.068 110.126 157.975C114.337 157.832 118.611 156.847 122.563 155.371C122.956 154.551 122.678 152.948 122.791 152.036C123.809 143.829 132.025 137.935 139.469 135.995C140.215 135.802 141.172 135.838 141.798 135.633C142.511 135.403 143.679 133.236 144.041 132.492C145.933 128.583 146.817 123.943 147.549 119.693C147.389 119.023 142.205 116.527 141.363 115.548C141.111 115.253 140.951 115.155 140.937 114.703C140.937 114.692 140.939 114.683 140.945 114.669C140.945 114.666 140.945 114.661 140.948 114.655C140.953 114.641 140.962 114.624 140.973 114.605C140.995 114.565 141.026 114.518 141.063 114.467C141.094 114.428 141.125 114.389 141.158 114.349C141.167 114.338 141.178 114.327 141.186 114.316C141.212 114.288 141.237 114.259 141.265 114.231C141.282 114.212 141.301 114.192 141.321 114.172C141.335 114.156 141.349 114.142 141.366 114.128C141.38 114.111 141.397 114.097 141.408 114.085C141.414 114.083 141.419 114.077 141.422 114.074C141.425 114.071 141.428 114.066 141.431 114.066C141.433 114.063 141.436 114.06 141.439 114.057C141.461 114.035 141.481 114.018 141.495 114.007C141.501 114.001 141.509 113.996 141.515 113.993C141.52 113.99 141.523 113.987 141.526 113.987C142.113 113.875 143.822 114.504 144.409 114.782C147.723 116.325 153.842 120.325 156.281 122.994C159.226 126.214 158.007 131.667 155.45 134.791C154.959 135.386 152.888 136.972 152.795 137.329C152.279 139.248 157.146 143.512 158.883 143.787C160.663 144.073 161.522 143.408 162.801 142.347C165.706 139.936 168.454 135.658 169.434 132.001C172.314 121.237 161.9 112.94 153.522 108.565ZM144.83 104.714C145.781 105.345 146.834 105.763 147.923 106.1C145.826 104.916 140.833 102.044 142 101.287C142.177 101.171 142.36 101.051 142.545 100.919C142.197 100.95 141.857 101.084 141.767 101.402C141.666 101.752 141.941 102.092 142.194 102.353C143.016 103.204 143.844 104.06 144.83 104.714ZM123.147 158.09L124.186 160.782C124.419 161.419 124.851 161.952 125.37 162.413C125.03 160.608 124.797 158.834 124.654 157.178L123.147 158.09ZM122.692 155.323C122.65 155.34 122.608 155.354 122.563 155.371C122.502 155.505 122.42 155.62 122.316 155.705C121.466 156.401 123.863 154.879 122.692 155.323ZM60.4574 121.274C60.8055 121.577 61.0441 121.675 60.9458 121.15C60.783 121.192 60.6202 121.234 60.4574 121.274ZM58.7706 120.288C58.7762 120.319 59.2365 120.443 59.7333 120.572C59.1719 120.019 58.6583 119.562 58.7706 120.288Z" fill="#353011"/>
<path d="M162.063 149.687C155.894 154.868 143.468 146.046 145.203 138.418C145.742 136.04 148.773 134.196 151.106 134.901C147.26 138.979 155.021 145.858 158.715 146.445C160.856 146.785 161.238 146.069 162.961 145.609C163.18 145.55 163.203 145.35 163.433 145.659C163.834 147.074 163.135 148.783 162.063 149.687Z" fill="white"/>
<path d="M162.496 111.498C161.867 111.652 161.774 111.122 161.46 110.877C161.426 110.852 161.493 110.689 161.46 110.67C161.878 110.973 162.147 111.231 162.496 111.498Z" fill="#353011"/>
<path d="M159.184 109.221C158.821 109.263 157.825 108.761 157.94 108.391C158.386 108.671 158.765 108.949 159.184 109.221Z" fill="#353011"/>
<path d="M145.074 100.329C145.054 100.307 145.071 100.329 145.077 100.335V100.329H145.074ZM66.0935 94.8674C66.537 95.4147 66.9608 95.9003 67.3453 96.3297L60.2834 83.9939C62.8292 89.7197 64.8838 93.1047 66.0935 94.8674Z" fill="#F9C65F"/>
<path d="M153.522 108.565C153.025 108.304 151.866 107.818 150.69 107.307C150.09 107.046 149.486 106.779 148.964 106.535C148.902 106.507 148.846 106.482 148.787 106.454C148.72 106.42 148.652 106.386 148.585 106.353C148.521 106.322 148.459 106.291 148.397 106.26C148.142 106.131 148.344 106.302 148.546 106.451C148.394 106.364 148.184 106.246 147.928 106.103C147.928 106.1 147.928 106.1 147.923 106.1C145.826 104.916 140.833 102.044 142 101.287C142.177 101.171 142.36 101.051 142.545 100.919H142.548C148.187 97.0006 157.629 86.6968 160.694 81.072C167.093 69.3284 172.544 54.5507 163.484 34.4681C153.89 13.2067 141.902 6.41983 123.551 1.53882C110.483 -1.93599 91.8121 2.20964 78.115 13.5463C72.3864 18.2897 68.673 21.6495 65.0438 28.1444C47.3189 59.8808 58.6612 82.0404 62.2566 89.0461C63.486 91.4459 64.8754 93.377 66.0935 94.8674C64.8838 93.1048 62.8292 89.7198 60.2835 83.9939L67.3454 96.3298C66.9608 95.9003 66.537 95.4147 66.0935 94.8674C66.857 95.9761 67.2836 96.442 67.2836 96.442C67.2836 96.442 67.132 97.2139 66.9019 98.3254C66.9384 98.2075 66.9833 98.0896 67.0366 97.9745C67.3341 97.3205 67.9572 96.7423 68.6758 96.776C69.4645 96.8125 70.0623 97.5956 70.1437 98.3815C70.2251 99.1702 69.9164 99.9421 69.5627 100.649C68.4568 102.864 66.8514 104.826 64.9119 106.356C65.0157 106.465 65.4508 106.872 65.4508 106.889C65.4283 106.895 65.4087 106.903 65.389 106.909C65.3469 106.92 65.3048 106.934 65.2627 106.951H65.2571C65.2347 106.959 65.215 106.967 65.1926 106.976C65.1224 107.004 65.0606 107.038 65.0101 107.074C64.9456 107.122 64.8782 107.259 64.8052 107.459C64.5077 108.289 64.1737 110.17 64.0867 110.706C59.9944 136.442 74.9405 156.942 101.844 157.975C104.488 158.079 107.48 158.068 110.126 157.975C114.337 157.832 118.611 156.847 122.563 155.371C122.956 154.551 122.678 152.948 122.791 152.036C123.81 143.829 132.025 137.935 139.469 135.995C140.215 135.802 141.172 135.838 141.798 135.633C142.511 135.403 143.679 133.236 144.041 132.492C145.933 128.583 146.817 123.943 147.549 119.693C147.389 119.023 142.205 116.527 141.363 115.548C141.111 115.253 140.951 115.155 140.937 114.703C140.937 114.692 140.939 114.683 140.945 114.669C140.945 114.667 140.945 114.661 140.948 114.655C140.953 114.641 140.962 114.624 140.973 114.605C140.996 114.565 141.026 114.518 141.063 114.467C141.094 114.428 141.125 114.389 141.158 114.349C141.167 114.338 141.178 114.327 141.186 114.316C141.212 114.288 141.237 114.26 141.265 114.231C141.282 114.212 141.301 114.192 141.321 114.173C141.335 114.156 141.349 114.142 141.366 114.128C141.38 114.111 141.397 114.097 141.408 114.086C141.414 114.083 141.419 114.077 141.422 114.074C141.425 114.071 141.428 114.066 141.431 114.066C141.433 114.063 141.436 114.06 141.439 114.057C141.461 114.035 141.481 114.018 141.495 114.007C141.501 114.001 141.509 113.996 141.515 113.993C141.52 113.99 141.523 113.987 141.526 113.987C142.113 113.875 143.822 114.504 144.409 114.782C147.723 116.325 153.842 120.325 156.281 122.994C159.226 126.214 158.007 131.667 155.451 134.791C154.959 135.386 152.888 136.972 152.795 137.329C152.279 139.248 157.146 143.512 158.883 143.787C160.663 144.073 161.522 143.408 162.801 142.347C165.707 139.936 168.454 135.658 169.434 132.001C172.314 121.237 161.901 112.94 153.522 108.565ZM113.234 78.9641C113.234 78.9641 113.234 78.9389 113.231 78.9248C113.225 78.8968 113.203 78.8631 113.169 78.8266C113.158 78.8126 113.147 78.8013 113.133 78.7873C113.107 78.7649 113.079 78.7368 113.046 78.7087C112.975 78.6526 112.891 78.5964 112.799 78.5375C112.731 78.4954 112.655 78.4505 112.577 78.4056C112.262 78.2288 111.895 78.0632 111.606 77.9733C111.412 77.9116 111.255 77.8835 111.173 77.9088C111.179 77.8498 111.21 77.7965 111.263 77.7488C111.274 77.7376 111.286 77.7291 111.3 77.7179C111.311 77.7067 111.325 77.6983 111.342 77.6899C111.359 77.6786 111.378 77.6674 111.398 77.6562C111.44 77.6337 111.485 77.6141 111.533 77.5944C111.564 77.5804 111.597 77.5692 111.634 77.5579C111.707 77.5355 111.782 77.513 111.864 77.4906C111.973 77.4625 112.091 77.4372 112.218 77.412C112.22 77.412 112.226 77.4092 112.229 77.4092C112.288 77.4008 112.349 77.3895 112.411 77.3783C112.49 77.3643 112.571 77.353 112.65 77.3418C112.734 77.3306 112.815 77.3194 112.9 77.3081C112.964 77.2969 113.034 77.2913 113.102 77.2829C113.169 77.2744 113.236 77.266 113.307 77.2576C113.511 77.238 113.716 77.2155 113.918 77.1959C113.921 77.193 113.924 77.193 113.927 77.1959C114.022 77.1846 114.118 77.1762 114.21 77.165C114.306 77.1566 114.398 77.1481 114.488 77.1369C114.533 77.1341 114.578 77.1285 114.623 77.1229C114.637 77.1201 114.651 77.1173 114.665 77.1173C114.721 77.1117 114.777 77.1032 114.831 77.0976C114.839 77.0948 114.85 77.0948 114.862 77.0948C114.898 77.0892 114.934 77.0864 114.971 77.0808C114.977 77.078 114.979 77.078 114.982 77.078C115.055 77.0667 115.125 77.0555 115.187 77.0443C115.201 77.0443 115.212 77.0415 115.224 77.0387C115.246 77.0359 115.268 77.0303 115.288 77.0246C115.33 77.019 115.37 77.0106 115.4 76.9994C115.414 76.9938 115.431 76.991 115.445 76.9853C115.487 76.9741 115.518 76.9601 115.544 76.9461C115.56 76.9376 115.572 76.9264 115.577 76.918C115.588 76.9068 115.591 76.8927 115.586 76.8759C115.558 76.859 115.532 76.845 115.504 76.831C115.454 76.8057 115.4 76.7804 115.35 76.758C115.322 76.744 115.294 76.7327 115.266 76.7215C115.19 76.6906 115.117 76.6626 115.041 76.6373C115.019 76.6289 114.999 76.6233 114.977 76.6149C115.021 76.6261 115.064 76.6401 115.103 76.6513C115.384 76.7299 115.53 76.7973 115.574 76.8534C115.58 76.8618 115.583 76.8675 115.586 76.8731C115.611 76.8871 115.633 76.9011 115.659 76.9152C115.864 77.0331 116.068 77.1734 116.265 77.3334C116.363 77.4148 116.461 77.499 116.557 77.5888C116.605 77.6337 116.649 77.6814 116.697 77.7292C116.745 77.7741 116.793 77.8218 116.835 77.8723C116.88 77.92 116.924 77.9705 116.969 78.021C117.059 78.1249 117.146 78.2288 117.225 78.3382C117.27 78.3915 117.309 78.4477 117.346 78.5038C117.385 78.56 117.424 78.6161 117.461 78.675C117.494 78.7228 117.525 78.7677 117.553 78.8182C117.618 78.9192 117.677 79.0231 117.733 79.1297C117.755 79.1718 117.778 79.2139 117.8 79.2589C117.834 79.3234 117.865 79.388 117.893 79.4525C117.927 79.5227 117.957 79.5929 117.985 79.6658C118.008 79.7136 118.028 79.7613 118.044 79.8118C118.067 79.8707 118.087 79.9297 118.106 79.9858C118.123 80.0307 118.137 80.0728 118.148 80.1177C118.157 80.143 118.165 80.1711 118.174 80.1963C118.202 80.303 118.23 80.4068 118.249 80.5135C118.261 80.5556 118.269 80.5977 118.275 80.6398C118.283 80.6959 118.291 80.7493 118.3 80.8026C118.308 80.8587 118.314 80.9149 118.319 80.971C118.325 81.0271 118.331 81.0833 118.331 81.1366C118.336 81.2404 118.336 81.3471 118.331 81.451C118.331 81.4706 118.331 81.4902 118.331 81.5155V81.5323C118.325 81.5885 118.317 81.6587 118.308 81.7316C118.305 81.7625 118.3 81.7934 118.294 81.8271C118.291 81.8579 118.286 81.8888 118.28 81.9197C118.28 81.9225 118.28 81.9253 118.28 81.9281C118.272 81.9674 118.263 82.0067 118.258 82.0488C118.255 82.0572 118.255 82.0628 118.252 82.0685C118.244 82.1049 118.235 82.1442 118.227 82.1835C118.218 82.2256 118.207 82.2705 118.193 82.3154C118.182 82.3576 118.168 82.4025 118.154 82.4446C118.134 82.5063 118.112 82.5681 118.087 82.627C118.072 82.6635 118.056 82.7 118.036 82.7365C117.997 82.8122 117.952 82.8796 117.901 82.9273C117.887 82.9414 117.873 82.9526 117.859 82.9638C117.845 82.975 117.831 82.9835 117.817 82.9919C117.8 83.0003 117.781 83.0087 117.761 83.0143C117.741 83.02 117.722 83.0228 117.702 83.0228C117.665 83.0228 117.629 83.0143 117.59 82.9975C117.57 82.9891 117.542 82.9582 117.511 82.9105C117.5 82.8936 117.489 82.8768 117.477 82.8572C117.43 82.7786 117.376 82.6747 117.315 82.5484C117.273 82.467 117.23 82.3744 117.186 82.2761C117.149 82.1976 117.113 82.1133 117.073 82.0292C117.031 81.9449 116.992 81.8551 116.953 81.7681C116.933 81.726 116.913 81.6811 116.891 81.6362C116.854 81.5604 116.821 81.4846 116.784 81.4117C116.759 81.3527 116.728 81.291 116.7 81.2348C116.658 81.1478 116.616 81.0636 116.574 80.9794C116.464 80.7717 116.358 80.5808 116.254 80.4293C116.214 80.3703 116.175 80.317 116.139 80.2721C116.127 80.2581 116.119 80.2468 116.105 80.2356C116.097 80.2244 116.088 80.216 116.077 80.2047C116.021 80.1486 115.97 80.1093 115.922 80.0953C115.878 80.0784 115.838 80.0812 115.799 80.1065C115.513 80.7268 115.212 81.3499 114.904 81.9674C114.797 82.1751 114.693 82.3828 114.586 82.5877C114.443 82.8628 114.297 83.135 114.151 83.4101C113.989 83.7104 113.823 84.0107 113.655 84.3083C113.337 84.8781 113.009 85.4394 112.669 85.9951C112.546 86.2057 112.417 86.4134 112.288 86.6183C112.128 86.8765 111.965 87.1319 111.802 87.3845C111.698 87.5473 111.594 87.7045 111.488 87.8645C111.409 87.988 111.328 88.1087 111.246 88.2265C111.131 88.3978 111.016 88.569 110.898 88.7374C110.752 88.9507 110.604 89.164 110.452 89.3745C110.351 89.5177 110.25 89.658 110.146 89.7984C110.045 89.9387 109.944 90.079 109.84 90.2166C109.792 90.2783 109.748 90.3401 109.7 90.4018C109.63 90.4972 109.559 90.5899 109.487 90.6825C109.273 90.9632 109.051 91.241 108.827 91.5161C108.729 91.6368 108.628 91.7603 108.524 91.881C108.473 91.9427 108.42 92.0017 108.369 92.0634C108.266 92.1841 108.165 92.302 108.058 92.4227C107.741 92.782 107.418 93.1328 107.084 93.4724C106.946 93.6156 106.806 93.7559 106.666 93.8935C106.581 93.9777 106.494 94.0591 106.41 94.1405C106.326 94.2219 106.239 94.3032 106.152 94.3818C105.95 94.5699 105.745 94.7523 105.537 94.9292C105.419 95.033 105.302 95.1313 105.181 95.2267C105.122 95.2744 105.06 95.3249 105.001 95.3726C104.881 95.4681 104.76 95.5635 104.636 95.6533C104.575 95.701 104.513 95.7459 104.451 95.7908C104.328 95.8835 104.207 95.9705 104.083 96.0547C103.895 96.1838 103.707 96.3073 103.516 96.428C103.39 96.5066 103.264 96.5852 103.138 96.6581H103.135C103.006 96.7339 102.879 96.8069 102.75 96.8743C102.425 97.0511 102.099 97.2083 101.768 97.3486C101.636 97.4076 101.504 97.4609 101.372 97.5086C101.358 97.5142 101.341 97.5226 101.324 97.5254C101.226 97.5619 101.131 97.5984 101.032 97.6293C100.999 97.6433 100.968 97.6546 100.934 97.663C100.878 97.6826 100.822 97.6995 100.766 97.7163C100.715 97.7331 100.668 97.7472 100.617 97.7612C100.569 97.7752 100.524 97.7865 100.477 97.8005C100.398 97.823 100.32 97.8426 100.241 97.8595C100.143 97.8847 100.047 97.9072 99.949 97.9268C99.921 97.9352 99.8929 97.9408 99.8648 97.9437C99.7554 97.9661 99.6459 97.9858 99.5364 98.0026C99.3652 98.0307 99.1968 98.0531 99.0256 98.0672C98.9105 98.0784 98.7954 98.0868 98.6804 98.0924C98.4558 98.1064 98.2313 98.1064 98.0067 98.098C97.9422 98.098 97.8832 98.0924 97.8187 98.0896C97.8103 98.0896 97.8046 98.0896 97.799 98.0868C97.7934 98.0896 97.7906 98.0896 97.7878 98.0868C97.7429 98.084 97.6952 98.0812 97.6503 98.0756C97.4005 98.0587 97.1479 98.025 96.8952 97.9773C96.71 97.9437 96.5247 97.9044 96.3367 97.8566C96.1486 97.8089 95.9606 97.7528 95.7725 97.6882C95.6799 97.6574 95.5817 97.6237 95.489 97.5872C95.3936 97.5535 95.301 97.5142 95.2056 97.4749C95.1185 97.4412 95.0315 97.4019 94.9445 97.3626C94.9361 97.3598 94.9305 97.3542 94.9221 97.3514C94.8351 97.3149 94.7509 97.2728 94.6667 97.2307C94.6526 97.2223 94.6386 97.2167 94.6246 97.2111C94.5347 97.1634 94.4421 97.1185 94.3523 97.0679C94.1614 96.9641 93.9706 96.8546 93.7797 96.7339C93.7264 96.7002 93.6702 96.6638 93.6169 96.6273C93.5973 96.6132 93.5776 96.602 93.558 96.588C93.5074 96.5543 93.4569 96.5178 93.4092 96.4813C93.3475 96.4392 93.2857 96.3943 93.2268 96.3438C93.1257 96.2652 93.0247 96.1838 92.9264 96.0968C92.8787 96.0547 92.831 96.0126 92.7861 95.9705C92.7384 95.9284 92.6907 95.8835 92.6458 95.8386C92.5952 95.7937 92.5447 95.7459 92.497 95.6954C92.3988 95.6 92.3033 95.4989 92.2079 95.3951C92.1602 95.3418 92.1125 95.2884 92.0676 95.2351C92.0198 95.1818 91.9721 95.1256 91.9272 95.0723C91.8514 94.9853 91.7785 94.8955 91.7083 94.8029C91.6044 94.6709 91.5006 94.5334 91.3995 94.3931C91.3939 94.3818 91.3855 94.3734 91.3799 94.365C91.3153 94.2724 91.248 94.1769 91.1834 94.0815C91.1076 93.9692 91.0347 93.857 90.9617 93.7419C90.8887 93.6268 90.8157 93.5089 90.7456 93.391C90.6754 93.276 90.608 93.1581 90.5407 93.0374C90.4509 92.8774 90.3638 92.7174 90.2768 92.5518C90.1898 92.3862 90.1056 92.2178 90.0242 92.0466C89.9625 91.9203 89.9007 91.7912 89.8418 91.6592C89.7211 91.401 89.606 91.1344 89.4965 90.8649C89.4544 90.7583 89.4095 90.6516 89.3674 90.5422C89.3169 90.4158 89.2692 90.2895 89.2215 90.1604C89.171 90.0313 89.1232 89.8994 89.0783 89.7675C89.0166 89.5935 88.9576 89.4166 88.8987 89.2398C88.8482 89.0882 88.7977 88.9339 88.7499 88.7795C88.6321 88.3978 88.5226 88.016 88.4187 87.6287C88.3879 87.508 88.357 87.3873 88.3261 87.2666C88.3065 87.1936 88.2896 87.1207 88.2728 87.0477C88.2082 86.781 88.1465 86.5144 88.0903 86.2478C88.0539 86.0793 88.0202 85.9081 87.9865 85.7397C87.9781 85.692 87.9669 85.6415 87.9584 85.5938C87.936 85.4731 87.9135 85.3524 87.8939 85.2317C87.863 85.0633 87.8349 84.8949 87.8069 84.7265C87.7816 84.5609 87.7563 84.3925 87.7339 84.2269C87.7114 84.0585 87.689 83.8929 87.6693 83.7273C87.6497 83.5532 87.63 83.382 87.6132 83.208C87.6048 83.1238 87.5935 83.0368 87.5879 82.9526C87.5795 82.8684 87.5711 82.7842 87.5655 82.7C87.5514 82.5316 87.5402 82.366 87.529 82.2004C87.5206 82.0656 87.515 81.9281 87.5065 81.7934C87.5009 81.639 87.4953 81.4874 87.4925 81.3359C87.4813 80.7661 87.4925 80.2216 87.5262 79.7079C87.4532 79.6686 87.3718 79.6265 87.2848 79.5788C87.2455 79.5564 87.2062 79.5367 87.1641 79.5143C87.1585 79.5115 87.1529 79.5087 87.1501 79.5058C87.1024 79.4806 87.0546 79.4525 87.0041 79.4244C86.9199 79.3767 86.8301 79.3262 86.7403 79.2729C86.628 79.2055 86.5157 79.1354 86.4035 79.0624C86.3333 79.0147 86.2631 78.9669 86.193 78.9192C86.0919 78.8491 85.9937 78.7761 85.8954 78.6975C85.8646 78.6722 85.8309 78.647 85.8 78.6217C85.6737 78.5179 85.553 78.4084 85.4435 78.2933C85.4014 78.2512 85.3593 78.2063 85.32 78.1614C85.2807 78.1165 85.2443 78.0716 85.2078 78.0239C85.1853 77.993 85.1601 77.9593 85.1376 77.9284C85.1039 77.8807 85.073 77.8302 85.0422 77.7797C85.0113 77.7291 84.9832 77.6786 84.9608 77.6253C84.9439 77.5888 84.9299 77.5551 84.9159 77.5186C84.9046 77.4906 84.8934 77.4653 84.885 77.4372C84.885 77.4372 84.8822 77.4344 84.8822 77.4316C84.8822 77.4232 84.8738 77.4148 84.8738 77.4064V77.4008C84.8625 77.3699 84.8541 77.3362 84.8485 77.3053C84.8373 77.2688 84.8317 77.2323 84.8261 77.1959C84.812 77.106 84.8064 77.019 84.812 76.9292C84.8148 76.8703 84.8204 76.8141 84.8261 76.7636C84.8289 76.7243 84.8345 76.685 84.8401 76.6485C84.8457 76.6177 84.8513 76.5896 84.8569 76.5643C84.8625 76.5335 84.8682 76.5054 84.8766 76.4801C84.8822 76.4549 84.8878 76.4324 84.8962 76.4128C84.9018 76.3903 84.9103 76.3707 84.9187 76.351C84.9271 76.3286 84.9355 76.3061 84.9496 76.2865C84.9636 76.2556 84.9804 76.2275 85.0001 76.2023C85.0169 76.177 85.0366 76.1545 85.0562 76.1349C85.1039 76.09 85.1601 76.0591 85.219 76.0423C85.2415 76.0367 85.2611 76.0338 85.2836 76.031C85.292 76.0282 85.3032 76.0282 85.3144 76.0282C85.3257 76.0254 85.3341 76.0254 85.3453 76.0254C85.3762 76.0254 85.4071 76.0282 85.4379 76.0339C85.466 76.0367 85.4913 76.0423 85.5193 76.0507C85.5474 76.0563 85.5783 76.0647 85.6063 76.076C85.6316 76.0844 85.6569 76.0956 85.6849 76.1096C85.7298 76.1265 85.7747 76.1489 85.8196 76.1742C85.8533 76.191 85.8898 76.2135 85.9263 76.2359C85.9712 76.264 86.0189 76.2949 86.0666 76.3258C86.1031 76.351 86.1396 76.3763 86.1733 76.4015C86.3193 76.5082 86.4708 76.6317 86.6196 76.758C86.7234 76.8478 86.8273 76.9404 86.9255 77.0275C86.9985 77.0948 87.0715 77.1594 87.1388 77.2211C87.1781 77.2548 87.2146 77.2885 87.2511 77.3222C87.3886 77.4429 87.5093 77.5439 87.6076 77.6113C87.8911 77.8049 88.2138 78.0098 88.5647 78.2175C88.6798 78.2877 88.8005 78.3579 88.9212 78.428C89.084 78.5207 89.2495 78.6161 89.4208 78.7087H89.4236C89.4713 78.7368 89.519 78.7649 89.5695 78.7901C89.5723 78.7929 89.5751 78.7957 89.5779 78.7957C90.0018 79.0287 90.4424 79.2617 90.8831 79.4834C91.0038 79.5451 91.1245 79.6069 91.2452 79.6658C91.6634 79.8735 92.076 80.07 92.4633 80.244C92.5447 80.2833 92.6289 80.3198 92.7075 80.3563C92.7861 80.3928 92.8647 80.4265 92.9405 80.4602C93.1145 80.5387 93.2773 80.6089 93.4345 80.6735C99.8592 83.3483 107.356 82.6944 113.236 78.9641H113.234ZM68.2997 118.217L68.0864 124.844L65.6304 124.092L66.1469 107.894C69.9136 107.804 72.3022 108.382 72.6418 112.528C72.8916 115.567 72.246 119.371 68.2997 118.217ZM80.2987 116.033C80.2173 118.293 80.4447 122.374 79.7289 124.37C78.3592 128.173 73.7505 126.618 73.2845 123.064L73.7729 109.3C73.975 109.005 75.9426 108.901 76.1362 109.446L75.7461 122.467C75.7657 123.752 77.4105 124.471 77.6266 122.888C77.8989 120.867 77.5873 118.669 77.6575 116.665C77.7361 114.285 78.0196 111.913 78.028 109.519C78.6595 109.558 79.844 109.353 80.3127 109.825C80.8937 110.411 80.338 114.958 80.2987 116.033ZM88.9548 121.476C89.272 123.354 89.126 126.306 87.3381 127.421C86.0975 128.198 82.9736 127.547 81.5786 127.092L82.1989 110.686C82.3785 110.139 84.9608 110.308 85.539 110.397C88.9857 110.931 89.9484 114.568 88.8089 117.501C88.6377 117.936 87.8293 118.851 87.8209 118.938C87.8012 119.177 88.8398 120.799 88.9548 121.476ZM96.0167 128.852L95.5199 129.2L90.3863 128.535L90.0635 128.232L90.9589 111.579C91.2424 111.169 93.2071 111.397 93.4653 111.79L93.5636 112.107L92.7328 126.292L95.4947 126.534C96.1683 126.75 96.0981 128.257 96.0167 128.852ZM99.9883 129.467C99.848 130.062 97.9113 129.649 97.4875 129.512L97.2854 129.091L97.9085 112.938L98.1022 112.511L100.603 112.626L99.9883 129.467ZM101.31 125.243L103.915 124.844C103.368 126.079 104.808 129.046 105.97 127.418C106.697 126.399 106.04 124.763 105.448 123.828C103.763 121.156 101.577 120.03 102.068 116.266C102.674 111.618 108.529 111.919 109.248 116.092C109.661 118.481 108.973 118.428 106.8 118.127C106.469 117.894 106.671 116.85 106.514 116.342C106.02 114.731 104.768 115.986 104.723 117.282C104.628 120.249 109.36 122.469 109.068 126.371C108.552 133.225 100.592 131.126 101.31 125.243ZM117.8 131.378L115.184 131.269L115.513 124.429L113.43 124.311C112.953 124.659 113.13 129.256 113.029 130.129C112.824 131.923 111.485 131.14 110.216 130.865L111.162 114.021C111.491 113.417 113.624 113.608 113.826 114.209L113.441 121.321L115.715 121.529L116.226 114.271C116.509 113.85 118.479 114.417 119.027 114.498L117.8 131.378ZM127.329 117.712L123.596 117.605L123.198 121.824C123.358 122.492 125.69 121.93 126.291 122.242C126.779 122.584 126.347 124.285 126.28 124.844H122.965L122.757 129.61L126.496 129.91C126.731 130.056 126.498 132.161 126.397 132.31C126.26 132.509 125.99 132.515 125.763 132.523L119.95 131.897C119.591 128.692 120.237 125.45 120.478 122.253C120.66 119.839 120.439 117.308 120.983 114.888C121.354 114.344 126.776 115.076 127.7 115.346L127.329 117.712ZM136.468 123.126C136.185 123.819 135.037 124.687 134.972 125.164C134.882 125.829 135.651 128.574 135.775 129.531C136.12 132.15 136.698 133.276 133.311 132.579L132.157 125.661L131.248 125.669L130.731 132.299C130.431 132.919 128.216 132.995 127.98 132.147L129.179 115.318C130.599 115.517 132.724 115.048 134.043 115.318C134.815 115.475 136.056 116.555 136.404 117.308C137.03 118.658 137.035 121.751 136.468 123.126ZM122.692 155.323C122.65 155.34 122.608 155.354 122.563 155.371C122.502 155.505 122.42 155.62 122.316 155.705C121.466 156.401 123.863 154.879 122.692 155.323Z" fill="#F9C65F"/>
<path d="M170.986 121.852C170.666 121.083 170.442 120.095 169.743 119.576C169.723 119.511 169.762 119.432 169.743 119.368C169.367 119.216 169.285 118.854 169.122 118.54C169.094 118.484 169.15 118.383 169.122 118.332C168.87 117.883 168.558 117.341 168.087 117.089C168.092 117.021 168.084 116.951 168.087 116.881V116.676C167.722 116.244 167.051 115.663 166.638 115.225C166.568 115.155 166.498 115.088 166.431 115.017L166.015 114.605C165.948 114.535 165.88 114.464 165.81 114.397C165.597 114.189 165.409 113.984 165.187 113.777C165.117 113.709 165.055 113.634 164.98 113.569L164.679 113.145C164.505 112.988 164.208 112.996 164.152 112.949C164.028 112.836 163.916 112.688 163.739 112.533C163.377 112.225 163.02 111.955 162.703 111.705C162.633 111.649 162.574 111.559 162.496 111.498C161.867 111.652 161.774 111.122 161.46 110.877H161.252C161.19 110.861 161.103 110.9 161.047 110.877C160.873 110.807 160.747 110.715 160.637 110.563C160.75 110.375 160.873 110.628 161.047 110.67C161.171 110.701 161.395 110.628 161.46 110.67C160.842 110.218 160.309 109.974 159.804 109.634C159.59 109.491 159.402 109.362 159.184 109.221C158.821 109.263 157.825 108.761 157.94 108.391C157.786 108.295 157.634 108.25 157.525 108.186C157.325 108.065 157.087 107.563 156.624 107.551C156.562 107.621 156.517 107.627 156.489 107.563L154.625 106.322C153.851 106.375 152.961 105.8 152.29 105.483C151.254 104.992 150.202 104.624 149.149 104.214C146.904 103.35 145.441 101.16 142.87 100.922C142.767 100.913 142.657 100.91 142.548 100.919H142.545C142.36 101.051 142.177 101.171 142 101.287C140.833 102.044 145.826 104.916 147.923 106.1C147.925 106.1 147.928 106.1 147.928 106.103C149.323 106.535 150.777 106.841 152.161 107.304H150.69C151.866 107.818 153.025 108.304 153.522 108.565C161.9 112.94 172.314 121.237 169.434 132.001C168.454 135.658 165.706 139.936 162.801 142.347C161.522 143.408 160.663 144.073 158.883 143.787C157.146 143.512 152.279 139.248 152.795 137.329C152.888 136.972 154.959 135.386 155.45 134.791C158.007 131.667 159.226 126.214 156.281 122.994C153.842 120.325 147.723 116.325 144.409 114.782C143.822 114.504 142.113 113.875 141.526 113.987C141.526 113.987 141.52 113.99 141.515 113.993C141.509 113.996 141.501 114.001 141.495 114.007C141.481 114.018 141.461 114.035 141.439 114.057C141.436 114.06 141.433 114.063 141.431 114.066C141.428 114.066 141.425 114.071 141.422 114.074C141.419 114.077 141.414 114.083 141.408 114.086C141.397 114.097 141.38 114.111 141.366 114.128C141.349 114.142 141.335 114.156 141.321 114.173C141.301 114.192 141.282 114.212 141.265 114.231C141.237 114.26 141.212 114.288 141.186 114.316C141.178 114.327 141.167 114.338 141.158 114.349C141.125 114.389 141.094 114.428 141.063 114.467C141.026 114.518 140.995 114.565 140.973 114.605C140.962 114.624 140.953 114.641 140.948 114.655C140.945 114.661 140.942 114.667 140.945 114.669C140.939 114.683 140.937 114.692 140.937 114.703C140.951 115.155 141.111 115.253 141.363 115.548C142.205 116.527 147.389 119.023 147.549 119.693C146.817 123.943 145.933 128.583 144.041 132.492C143.679 133.236 142.511 135.403 141.798 135.633C141.172 135.838 140.215 135.802 139.469 135.995C132.025 137.935 123.81 143.829 122.791 152.036C122.678 152.948 122.956 154.551 122.563 155.371C122.608 155.354 122.65 155.34 122.692 155.323C123.863 154.879 121.466 156.401 122.316 155.705C122.42 155.62 122.502 155.505 122.563 155.371C118.611 156.847 114.337 157.832 110.126 157.975C107.48 158.068 104.488 158.079 101.844 157.975C74.9405 156.942 59.9943 136.442 64.0866 110.706C64.1736 110.17 64.5076 108.289 64.8052 107.459H63.3456C63.8902 107.125 64.4122 106.757 64.9118 106.356C66.8513 104.826 68.4568 102.864 69.5627 100.649C69.9163 99.9421 70.2251 99.1702 70.1437 98.3815C70.0623 97.5956 69.4644 96.8125 68.6757 96.776C67.9572 96.7423 67.3341 97.3205 67.0366 97.9745C66.9832 98.0896 66.9383 98.2075 66.9018 98.3254C66.9018 98.3282 66.9018 98.3338 66.899 98.3366C66.7138 98.8923 66.652 99.4902 66.5285 100.066C65.2206 106.156 57.2549 107.344 52.0511 106.437C49.6008 106.01 47.0242 104.826 45.2166 103.122L43.3697 101.505C42.2947 100.282 42.4379 100.206 43.1564 98.9345C43.2294 98.8082 43.4595 98.7801 43.5437 98.6089C45.3653 94.8983 45.4804 91.3758 42.9796 87.9431C45.4074 84.0248 47.0185 79.6181 47.0831 74.9588C47.1252 71.7563 46.5217 69.5642 44.804 66.8837C44.397 66.7181 44.2258 66.3701 43.976 66.0557C43.9283 65.994 43.8356 65.9519 43.7683 65.848L42.9683 65.1688C45.7415 57.0824 48.9103 49.1476 52.0511 41.2044C53.4854 37.5808 56.2613 32.1778 57.0219 28.5738C57.1033 28.1949 57.5131 27.5887 57.0247 27.221C54.2713 26.4435 51.529 25.6155 48.7391 24.9475C41.1973 23.1343 33.313 21.7926 25.541 21.8403L24.7803 23.8163L11.8775 26.0898C11.8916 26.2947 11.8747 26.5052 11.8775 26.7101C11.9 27.5269 11.8859 28.3577 11.8579 29.1745L4.83809 31.2655C3.33085 31.9701 1.82921 32.7054 0.296707 33.3538C0.069357 33.6682 1.88816 36.91 2.18287 37.5443C5.83731 45.4679 9.24195 53.5374 12.1021 61.7838C7.8582 63.7036 3.09508 67.0521 3.81923 72.3513C3.89782 72.938 4.4283 73.7968 4.40865 74.2403C4.39743 74.5238 3.32804 76.2023 3.12314 76.8675C2.52811 78.7957 2.57582 80.1683 3.561 81.9309C3.84449 82.4305 4.7988 83.455 4.84651 83.7722C4.9223 84.3139 4.08026 86.3095 4.00167 87.2722C3.55258 92.7932 8.01257 97.8595 12.7757 100.052C14.5777 100.882 15.953 100.986 17.7269 101.48C17.8588 101.517 18.1311 102.207 18.9198 101.879C19.2959 106.718 24.0225 108.261 28.2383 108.402C29.3722 109.993 30.3743 111.711 31.5503 113.269C38.6655 121.406 50.1088 123.797 60.4575 121.274C60.2413 121.086 59.9831 120.822 59.7333 120.572C59.2365 120.443 58.7762 120.319 58.7706 120.289C58.6583 119.562 59.1719 120.019 59.7333 120.572C60.3171 120.726 60.9543 120.889 60.9599 120.926C61.423 123.808 61.7289 127.418 62.6439 130.188C65.5237 138.906 69.3073 145.367 76.3719 151.144C76.5179 151.261 77.0484 151.32 76.995 151.452L72.6445 160.875C71.999 163.23 71.331 165.531 70.7808 167.917C69.6974 172.63 68.8834 177.415 68.9255 182.274L68.5045 185.103C63.0481 180.738 56.89 181.291 49.9264 180.722C48.711 180.623 47.3104 180.66 46.5189 181.586C46.1119 182.063 44.2735 183.469 44.1191 184.078C43.4539 186.714 43.2771 187.447 43.7935 191.21C44.0349 194.944 47.7399 197.343 51.0266 199.126C55.3379 201.464 59.7389 203.833 64.561 204.725C69.383 205.621 74.7833 204.809 78.3451 201.441C81.8087 198.166 82.8893 193.184 82.6367 188.331C83.0998 187.932 83.504 187.48 83.8268 186.967L84.0345 185.726C84.0233 185.591 84.0345 185.448 84.0345 185.311C84.0345 185.151 83.9587 184.887 84.1411 184.892L83.6107 182.293C84.1439 173.999 85.9347 165.632 89.6312 158.18C89.7744 158.155 89.8109 158.388 89.8333 158.391C89.9007 158.396 89.9708 158.388 90.041 158.391L98.1161 160.254C98.1835 160.263 98.2537 160.249 98.3239 160.254C99.528 160.383 100.892 160.336 102.051 160.462C102.629 160.527 102.343 160.835 102.761 160.892C103.429 160.981 104.111 160.734 104.673 160.748C106.009 160.776 107.727 160.751 109.001 160.866C109.27 160.892 109.34 160.802 109.506 161.082C109.529 161.122 109.492 161.214 109.506 161.29C109.517 161.357 109.5 161.428 109.506 161.498C110.124 164.187 110.517 166.909 111.266 169.573C111.948 171.987 112.874 174.316 113.854 176.615C114.581 178.319 118.016 182.866 117.258 184.595C116.748 185.76 114.064 186.557 112.989 187.023C111.485 187.677 109.95 188.266 108.535 189.103C106.028 190.587 104.01 192.768 102.239 195.078C100.597 197.217 99.062 199.855 99.7272 202.469C100.134 204.066 101.333 205.376 102.747 206.224C104.159 207.072 105.779 207.507 107.395 207.838C108.745 208.113 110.118 208.326 111.499 208.343C113.761 208.368 115.993 207.869 118.202 207.372C126.378 205.531 134.792 203.588 141.635 198.752C142.242 198.32 142.845 197.863 143.289 197.265C144.24 195.979 144.327 194.203 143.864 192.67C143.404 191.138 142.463 189.799 141.484 188.533C139.306 185.706 136.451 183.461 134.27 180.693C133.089 179.195 132.036 177.516 130.835 175.992C127.983 172.399 126.285 167.294 125.37 162.413C124.851 161.952 124.419 161.419 124.186 160.782L123.147 158.09L124.654 157.178C124.798 158.834 125.03 160.608 125.37 162.413C126.602 163.507 128.331 164.209 129.103 164.978C129.344 165.222 129.853 166.452 130.293 166.999C132.07 169.205 133.667 169.652 136.249 170.322C136.42 170.367 136.398 170.679 136.55 170.718C138.84 171.271 138.941 169.736 141.787 171.759C145.5 173.424 149.871 173.564 153.452 171.515C156.304 169.884 157.864 167.513 158.128 164.178C158.159 163.78 157.861 163.415 157.968 163.002C158.021 162.797 159.096 161.669 159.349 161.262C160.171 159.943 160.946 158.452 161.199 156.897C161.305 156.258 161.07 155.491 161.46 154.986C161.435 154.147 161.311 153.35 161.272 152.516C162.243 152.336 163.388 151.66 164.152 151.051C164.401 150.391 164.901 150.217 165.263 149.58C166.425 147.537 166.523 145.148 165.389 143.088C165.387 142.889 165.855 142.922 166.015 142.768C166.436 142.358 166.821 141.934 167.259 141.525C167.34 141.09 167.635 140.952 167.879 140.697C167.949 140.627 168.019 140.559 168.087 140.489C172.159 134.715 173.796 128.599 170.986 121.852ZM164.253 115.015L164.157 114.916L164.466 114.608C164.671 114.745 164.368 114.883 164.253 115.015ZM24.0955 26.0898L23.8653 27.9283C22.8773 28.2454 20.0397 27.8918 19.4671 28.5514C19.2173 29.2952 19.2566 30.3674 18.8047 31.0466C18.4033 31.6557 16.7782 32.1357 16.6856 32.6353C16.9971 35.1137 17.3423 37.5892 17.6735 40.0676C18.2938 44.6736 19.0405 49.3244 19.7646 53.922C19.86 54.531 20.354 55.9316 20.3849 56.2039C20.5561 57.6606 20.1828 59.4036 20.3681 60.8772L19.1275 60.5123C16.9803 49.6107 15.1222 38.6306 14.1566 27.5409L24.0955 26.0898ZM23.4752 29.1941L20.5786 51.7663L18.0833 33.0619C20.0481 32.4697 19.9302 31.2543 20.7245 29.8706C21.3448 28.7928 22.389 29.284 23.4752 29.1941ZM13.6963 42.7846L17.2638 60.5656L16.447 60.6583C16.2028 59.6394 16.0316 58.5868 15.8126 57.5652C15.4225 57.0403 15.1502 55.9793 14.9846 55.2861C14.9678 55.2215 15.0015 55.1429 14.9846 55.0784C14.5047 54.59 14.5524 53.776 14.3615 53.2146C12.7224 48.3336 10.7155 43.5677 8.77321 38.799C9.46649 37.4293 9.83137 36.3879 9.85383 34.8302L12.7055 34.165L13.6963 42.7846ZM3.17928 34.673C3.1877 34.2014 3.85572 34.0246 4.2206 33.859C6.68496 32.7223 9.66297 32.1048 12.1919 31.0606L12.4922 32.9131L8.24273 34.3699C7.95644 34.8302 8.76479 36.3711 8.03783 37.4714C7.78242 37.8559 7.1986 37.8306 7.20422 38.4032C10.3731 45.684 13.2248 53.1024 15.4141 60.7509C15.3748 60.9838 14.1314 61.2786 13.9265 60.9614C10.9204 51.9684 7.34175 43.186 3.17928 34.673ZM14.3166 63.6278C17.4041 62.6904 19.4952 62.7858 22.4395 63.9843C22.6921 63.2573 22.7651 63.3949 23.4752 63.2573C23.4443 62.4237 22.5658 62.1122 22.4395 61.5003C22.4142 61.3796 22.4507 61.2224 22.4395 61.0849C22.4254 60.9473 22.4479 60.807 22.4395 60.6723C22.4254 60.4646 22.4451 60.2569 22.4395 60.0492C22.4339 59.9116 22.4423 59.7741 22.4395 59.6366C22.4226 58.6093 22.403 57.5539 22.4395 56.5295C22.563 52.9648 22.8408 48.7996 23.2478 45.2265C23.2927 44.8364 23.666 44.9486 23.6576 44.8448C23.3292 39.961 25.3585 29.2783 27.138 24.8015C27.1886 24.6696 26.9556 24.3945 27.0791 24.2177C27.6854 23.7518 28.3029 23.9791 28.94 23.9903C34.6715 24.1026 41.2618 25.3909 47.2908 26.8112C49.6008 27.3557 51.8995 27.976 54.1899 28.6103L54.5211 28.9106C54.552 29.8481 53.7941 30.5863 53.491 31.3582C49.8618 40.6767 46.213 50.0402 42.8364 59.4289C42.3958 60.6554 42.0281 62.7914 41.4499 63.8412C41.1776 64.3408 40.0914 63.9366 39.8781 63.7261C39.7602 63.6166 39.864 63.4145 39.8332 63.364C39.6451 63.0244 39.6479 62.6202 39.2129 62.7409C39.1006 63.0075 39.0276 63.1675 38.7975 63.364C38.3484 63.7485 37.4783 63.9113 37.5569 63.1563C37.352 63.1395 37.1386 63.1647 36.9337 63.1563L35.3872 63.5745L35.2777 63.1563C34.708 63.1787 34.3992 63.3219 34.0343 63.364L33.7256 64.192C33.5544 63.5689 33.2625 63.771 32.7095 63.7934C32.3474 63.8075 32.1004 64.3043 32.1706 63.5689C30.7111 63.9394 29.5687 64.7814 28.2383 65.4326C28.0952 65.5028 27.7471 65.2923 27.8201 65.8452H27.618L27.6152 65.02C27.1577 65.02 26.7339 64.8572 26.7788 65.4242L26.3718 65.4326L26.5402 65.0593C25.802 64.8881 26.2006 63.9815 25.3473 64.1864L25.6504 63.771C25.0638 62.5977 25.221 64.0152 24.9291 64.3043C24.7074 64.5288 24.1348 64.4418 24.0955 64.8123C24.3649 64.846 24.654 64.787 24.9207 64.8151L24.7158 65.4326C25.4484 66.0473 26.122 66.7125 26.7844 67.4002C25.6954 68.2787 25.1733 69.5445 24.5109 70.729C24.0646 71.0097 23.3573 70.308 23.0598 70.1957C18.6307 68.5369 14.8696 68.5341 10.4292 70.1957C10.3787 70.5017 7.1565 71.5851 6.78039 72.2475C6.27517 72.3205 6.19658 71.5374 6.19658 71.2062C6.18255 67.7314 11.3583 64.5288 14.3166 63.6278ZM37.453 64.3997V64.192C37.5877 64.2594 37.5877 64.3295 37.453 64.3997ZM37.3463 63.5717V63.9815H37.0432L36.7288 63.6727L37.3463 63.5717ZM12.6606 72.1184C14.6422 71.5682 17.2918 71.3718 19.3324 71.6468C19.8123 71.7114 23.666 73.0783 23.7923 73.2916C23.5706 74.3582 23.6576 75.1694 23.8878 76.2023C24.1151 77.2183 24.5025 77.7656 24.9235 78.6863C24.9965 78.7508 25.0638 78.8266 25.1312 78.894C25.1985 78.9613 25.2659 79.0399 25.3389 79.1017C25.9452 79.6097 26.6272 80.1542 27.4075 80.3563L27.1998 81.378C22.1869 76.8422 14.2549 77.3081 8.56551 80.3423C8.54586 80.3563 8.52341 80.3759 8.49534 80.3984C8.46727 80.4209 8.43359 80.4489 8.39991 80.4798C7.93398 80.8812 6.88986 81.872 6.63725 81.9842C6.62883 81.987 6.62041 81.9899 6.61479 81.9927C6.60918 81.9955 6.60356 81.9955 6.59795 81.9955C2.6909 77.1004 8.2708 73.3365 12.6606 72.1184ZM18.2489 99.1337C8.84338 97.5872 0.218118 86.3685 12.2929 81.5857C14.9622 80.5303 17.3059 80.2553 20.1604 80.7577C22.3328 81.1394 26.0855 82.5653 26.3746 85.1054C26.6497 87.5389 24.5221 89.1416 22.3946 89.7198C19.4138 90.5309 16.2673 89.9499 13.3286 89.2482C13.1209 89.324 12.8178 89.0546 12.916 89.557C14.3643 91.2803 16.548 92.0438 18.7121 92.3553C21.1231 92.7006 22.8717 92.3694 25.1312 91.5273C26.9724 90.3737 28.6397 88.7486 28.8558 86.4498C28.9428 85.5236 28.6341 84.516 28.6958 83.8087C28.7604 83.0677 29.4929 82.032 29.4986 81.1899C30.3574 81.5127 30.7644 80.797 30.8711 80.7661C31.3651 80.6314 31.991 80.7043 32.6309 80.4938C35.7493 79.4581 38.7918 76.2416 38.5926 72.7976L38.0733 72.6769C36.945 74.6333 35.6623 76.3707 33.6217 77.4457C31.1798 78.7284 26.9696 79.0764 26.0995 75.7504C25.6111 73.881 26.2707 72.3654 27.2026 70.8188C28.5695 68.5453 30.7335 66.4767 33.3719 65.9098C39.9595 64.4979 44.2679 67.5293 44.5963 74.3385C44.7001 76.5026 44.4054 78.487 43.7683 80.55C40.8632 89.9808 28.6734 100.851 18.2489 99.1337ZM21.4038 101.882C22.2907 101.674 23.1945 101.626 24.0955 101.466C29.3358 100.529 32.2632 98.4685 36.3134 95.2548C36.8832 94.4436 37.6944 93.871 38.3849 93.1833C38.5224 93.0486 38.6655 92.9055 38.7975 92.7679L39.8332 91.7322C40.1054 91.4403 40.2261 91.1316 40.6612 90.6965C40.7313 90.6292 40.7959 90.5478 40.8689 90.4916C40.939 90.4355 40.9896 90.3344 41.0766 90.2839C41.3348 90.1295 41.259 89.9696 41.4976 90.3822C42.8813 92.7455 42.3116 95.3305 41.0738 97.59L39.8332 98.9822C38.5869 100.807 37.1639 101.963 35.2777 103.122C31.1686 105.651 23.3545 108.082 21.4038 101.882ZM60.6988 118.397C49.8955 122.113 36.6166 117.998 31.3398 107.579C34.8006 106.636 37.9273 104.705 40.5573 102.297C44.9247 108.096 51.8911 110.235 58.9277 108.862C59.9691 108.654 60.9346 108.194 61.99 108.096L60.6988 118.397ZM86.8553 157.916C86.7683 158.116 86.6841 158.315 86.5999 158.517C86.3192 159.191 86.047 159.87 85.7831 160.555C85.6989 160.776 85.6147 160.998 85.5305 161.223C85.3621 161.669 85.1993 162.118 85.0421 162.57C84.8597 163.086 84.6857 163.603 84.5144 164.125C84.3881 164.515 84.2646 164.908 84.1439 165.301C84.0233 165.694 83.9082 166.087 83.7931 166.483C83.7089 166.772 83.6303 167.058 83.5517 167.347C83.4956 167.552 83.4394 167.76 83.3861 167.965C83.0212 169.354 82.6984 170.757 82.429 172.169C82.3813 172.411 82.3364 172.655 82.2915 172.899C82.2494 173.135 82.2073 173.371 82.168 173.606C82.0164 174.504 81.8873 175.403 81.7806 176.306C81.7526 176.528 81.7273 176.747 81.7048 176.969C81.6684 177.286 81.6375 177.606 81.6094 177.926C81.587 178.142 81.5701 178.361 81.5533 178.577C81.5364 178.768 81.5224 178.959 81.5112 179.147C81.5 179.279 81.4915 179.414 81.4859 179.545C81.4719 179.778 81.4578 180.009 81.4466 180.239C81.4382 180.444 81.4298 180.646 81.4214 180.851C81.3596 182.574 81.3821 184.297 81.5 186.012C81.455 186.256 80.8235 186.779 80.5849 186.936C78.2188 188.446 73.2873 188.373 71.3001 186.139C71.2804 185.774 71.2664 185.409 71.2552 185.044C71.2439 184.688 71.2355 184.334 71.2327 183.977C71.2327 183.744 71.2271 183.509 71.2271 183.276C71.2271 182.9 71.2299 182.523 71.2383 182.145C71.2439 181.858 71.2496 181.569 71.2608 181.283C71.2692 181.05 71.2776 180.817 71.2917 180.587C71.2917 180.519 71.2973 180.452 71.3001 180.385C71.3057 180.272 71.3113 180.157 71.3197 180.045C71.331 179.801 71.345 179.557 71.3646 179.312C71.3843 178.984 71.4095 178.656 71.4404 178.327C71.4601 178.072 71.4853 177.816 71.5106 177.561C71.6004 176.626 71.7155 175.692 71.853 174.763C71.8783 174.594 71.9035 174.426 71.9288 174.257C71.9709 173.982 72.013 173.71 72.0607 173.438C72.1141 173.112 72.1702 172.79 72.2319 172.467C72.2909 172.144 72.3526 171.821 72.4172 171.498C72.5491 170.853 72.6866 170.21 72.8354 169.57C72.9084 169.25 72.987 168.93 73.0684 168.61C73.1273 168.372 73.1862 168.136 73.2508 167.9C73.2873 167.749 73.3294 167.597 73.3687 167.445C73.436 167.198 73.5034 166.949 73.5736 166.702C73.6522 166.418 73.7336 166.135 73.8206 165.854C73.8935 165.601 73.9693 165.352 74.0479 165.099C74.0956 164.939 74.1433 164.782 74.1967 164.622C74.1995 164.608 74.2023 164.597 74.2079 164.582C74.2837 164.347 74.3595 164.108 74.4381 163.872C74.5138 163.637 74.5924 163.406 74.6738 163.173C74.7468 162.955 74.8226 162.736 74.9012 162.517C74.977 162.301 75.0528 162.082 75.1342 161.866C75.2436 161.56 75.3587 161.254 75.4738 160.95C75.5748 160.687 75.6759 160.423 75.7797 160.159C75.8948 159.864 76.0127 159.57 76.1334 159.278C76.139 159.266 76.1418 159.255 76.1474 159.247C76.2597 158.969 76.3748 158.691 76.4926 158.416C76.7705 157.765 77.0568 157.116 77.3543 156.476C77.4806 156.199 77.6125 155.921 77.7445 155.643C77.7697 155.587 77.795 155.533 77.8231 155.477C78.0785 154.941 78.3423 154.408 78.6146 153.88C78.7633 153.588 78.9121 153.296 79.0665 153.007L87.136 157.265C87.0406 157.481 86.9479 157.697 86.8553 157.916ZM128.056 176.803C128.769 177.94 132.889 182.894 132.892 183.548C132.892 184.803 130.419 186.391 129.381 186.86C127.764 187.593 125.777 187.932 124.073 187.303C124.006 187.278 122.993 186.661 122.858 186.557C119.1 183.657 114.676 172.627 113.5 167.959C112.885 165.526 112.563 163.044 112.201 160.56L122.036 157.978C122.746 164.529 124.536 171.195 128.056 176.803ZM149.657 123.095C149.806 122.478 149.851 121.79 150.174 121.232C151.546 122.276 152.857 123.255 154.005 124.544C155.759 126.511 155.633 128.782 154.625 131.17C154.361 131.799 154.137 131.948 153.797 132.414C153.744 132.487 153.915 132.838 153.691 132.832C151.465 131.878 148.942 132.038 146.758 133.031C147.99 129.801 148.843 126.455 149.657 123.095ZM158.743 155.477C158.193 161.307 152.683 164.445 147.586 165.753C146.741 166.547 147.81 166.716 148.518 166.789C150.929 167.03 153.432 166.098 155.352 164.72C155.568 167.078 152.621 169.233 150.645 169.952C147.238 171.198 142.259 170.429 140.504 166.935C140.322 166.575 139.716 164.706 139.716 164.408V160.782C138.742 160.953 138.183 162.761 138.082 163.603C137.877 165.301 138.343 166.438 138.683 168.032C137.406 168.125 136.314 167.861 135.16 167.409C133.861 166.901 133.56 166.564 132.676 165.545C130.001 162.466 130.501 159.101 131.433 155.399C131.551 154.933 131.82 154.36 131.899 153.891C132.112 152.656 130.546 154.456 130.195 154.885C128.803 156.606 127.989 159.017 128.328 161.195C127.413 161.139 127.057 160.42 126.67 159.749C124.239 156.634 124.256 151.809 126.465 148.567C127.773 145.491 130.543 142.639 133.504 141.109C136.224 139.063 139.906 138.488 143.238 138.213V141.213C143.238 141.923 144.322 143.355 144.274 144.216C147.055 148.581 150.567 151.823 155.818 152.861C158.207 153.336 159.052 152.207 158.743 155.477ZM162.063 149.687C155.894 154.868 143.468 146.046 145.203 138.418C145.742 136.04 148.773 134.196 151.106 134.901C147.26 138.979 155.021 145.858 158.715 146.445C160.856 146.785 161.238 146.069 162.961 145.609C163.18 145.55 163.203 145.35 163.433 145.659C163.834 147.074 163.135 148.783 162.063 149.687Z" fill="#353011"/>
<path d="M136.468 123.126C137.035 121.751 137.029 118.658 136.404 117.308C136.055 116.555 134.815 115.475 134.043 115.318C132.724 115.048 130.599 115.517 129.179 115.318L127.98 132.147C128.216 132.995 130.431 132.919 130.731 132.299L131.247 125.669L132.157 125.661L133.31 132.579C136.698 133.276 136.12 132.15 135.775 129.531C135.651 128.574 134.882 125.829 134.972 125.164C135.037 124.687 136.185 123.819 136.468 123.126ZM131.455 122.98L131.871 118.009C135.396 117.555 134.7 123.766 131.455 122.98Z" fill="white"/>
<path d="M123.596 117.605L123.198 121.824C123.358 122.492 125.69 121.931 126.291 122.242C126.779 122.584 126.347 124.285 126.28 124.844H122.965L122.757 129.61L126.496 129.91C126.731 130.056 126.498 132.161 126.397 132.31C126.26 132.509 125.99 132.515 125.763 132.523L119.95 131.897C119.591 128.692 120.236 125.45 120.478 122.253C120.66 119.839 120.439 117.308 120.983 114.888C121.354 114.344 126.776 115.076 127.7 115.346L127.329 117.712L123.596 117.605Z" fill="white"/>
<path d="M119.027 114.498L117.8 131.378L115.184 131.269L115.513 124.429L113.43 124.311C112.953 124.659 113.13 129.256 113.029 130.129C112.824 131.923 111.485 131.14 110.216 130.865L111.162 114.021C111.49 113.418 113.624 113.608 113.826 114.209L113.441 121.321L115.715 121.529L116.226 114.271C116.509 113.85 118.479 114.417 119.027 114.498Z" fill="white"/>
<path d="M104.723 117.282C104.628 120.249 109.36 122.469 109.068 126.371C108.552 133.225 100.592 131.126 101.31 125.242L103.915 124.844C103.368 126.079 104.808 129.046 105.97 127.418C106.696 126.399 106.04 124.763 105.447 123.828C103.763 121.156 101.577 120.03 102.068 116.266C102.674 111.618 108.529 111.919 109.248 116.092C109.66 118.481 108.973 118.428 106.8 118.127C106.469 117.894 106.671 116.85 106.514 116.342C106.02 114.731 104.768 115.986 104.723 117.282Z" fill="white"/>
<path d="M100.603 112.626L99.9882 129.467C99.8479 130.062 97.9112 129.649 97.4874 129.512L97.2853 129.091L97.9084 112.938L98.1021 112.511L100.603 112.626Z" fill="white"/>
<path d="M96.0167 128.852L95.5199 129.2L90.3863 128.535L90.0635 128.232L90.9588 111.579C91.2423 111.169 93.2071 111.397 93.4653 111.79L93.5635 112.107L92.7327 126.292L95.4946 126.534C96.1682 126.75 96.0981 128.257 96.0167 128.852Z" fill="white"/>
<path d="M87.8208 118.938C87.8292 118.851 88.6376 117.936 88.8088 117.501C89.9483 114.568 88.9856 110.931 85.5389 110.397C84.9607 110.308 82.3784 110.139 82.1988 110.686L81.5785 127.092C82.9735 127.547 86.0974 128.198 87.338 127.421C89.1259 126.306 89.2719 123.354 88.9547 121.476C88.8397 120.799 87.8011 119.177 87.8208 118.938ZM84.2421 125.052V120.392C84.2421 120.255 84.5902 120.098 84.7642 120.07C87.0181 119.719 87.4671 126.02 84.2421 125.052ZM85.5613 117.33C85.4126 117.35 84.7614 117.215 84.694 117.139C84.1467 116.527 84.8484 113.92 84.6575 113.039C87.2033 112.514 87.3717 117.094 85.5613 117.33Z" fill="white"/>
<path d="M80.2986 116.033C80.2172 118.293 80.4446 122.374 79.7288 124.37C78.3591 128.173 73.7504 126.618 73.2844 123.064L73.7728 109.3C73.9749 109.005 75.9425 108.901 76.1361 109.446L75.746 122.467C75.7656 123.752 77.4104 124.471 77.6265 122.888C77.8988 120.867 77.5872 118.669 77.6574 116.665C77.736 114.285 78.0195 111.913 78.0279 109.519C78.6594 109.558 79.8439 109.353 80.3126 109.825C80.8936 110.411 80.3379 114.958 80.2986 116.033Z" fill="white"/>
<path d="M95.009 59.4542C95.0259 59.4345 95.0876 59.4822 95.1634 59.5047C95.4385 58.7721 95.8707 58.1209 96.143 57.3687C98.0291 52.193 100.137 37.7015 89.8923 38.7344C80.1274 39.7196 76.5151 59.6226 83.4254 65.4747C83.8324 65.82 84.3292 66.0361 84.8569 66.1091C84.8569 66.1091 89.359 66.342 95.0118 59.4542H95.009Z" fill="white"/>
<path d="M122.575 67.2009C114.741 70.9451 112.083 62.87 112.08 57.5203C112.077 51.5615 115.664 41.1174 123.313 39.8038C126.322 39.2874 128.828 40.4662 130.304 42.7706C134.478 49.2795 130.215 63.5493 122.575 67.2009Z" fill="white"/>
<path d="M47.2852 29.8229L33.1109 27.1143C32.3587 27.2434 32.3082 28.5851 31.7412 29.0735C31.2051 29.5338 29.8158 29.9885 29.0916 30.0502C27.5563 36.6209 26.6272 43.3039 25.948 50.0177C25.875 50.7447 25.7684 50.9412 25.7347 51.2331C25.28 55.0054 25.4372 58.876 24.7018 62.6062C25.3614 63.0581 26.0659 63.4819 26.689 63.9871C26.8883 64.1527 27.5451 64.9639 27.6152 65.02C27.7331 65.1098 28.1794 65.0593 28.2383 65.4326C29.5688 64.7814 30.7111 63.9394 32.1707 63.5689C32.9734 63.3668 33.3242 63.4426 34.0344 63.364C34.3992 63.3219 34.708 63.1788 35.2778 63.1563C35.8223 63.1339 36.3893 63.1339 36.9338 63.1563C37.1387 63.1647 37.352 63.1395 37.5569 63.1563C37.9779 63.19 38.3765 63.3331 38.7975 63.364C39.0276 63.1675 39.1006 63.0076 39.2129 62.7409C40.5321 59.572 41.318 55.331 42.4267 51.9769C44.397 46.0124 46.6621 40.135 48.8739 34.2632C47.5491 33.0759 46.8754 31.5996 47.2852 29.8229ZM42.9403 39.4445C42.9319 39.4895 42.915 39.5344 42.8926 39.5765C42.8701 39.6214 42.8421 39.6635 42.8056 39.7028C42.3144 40.2726 40.6836 40.6178 40.0437 40.7918C39.9258 39.5905 39.6143 37.971 38.1828 37.8952C38.1828 37.898 38.1744 37.9008 38.1716 37.9064C38.1631 37.9177 38.1519 37.9317 38.1407 37.9513C38.1323 37.971 38.121 37.9934 38.107 38.0243C38.0902 38.0664 38.0705 38.1169 38.0481 38.1787C38.0284 38.2376 38.006 38.305 37.9807 38.3836C37.947 38.4846 37.9133 38.5997 37.8769 38.7232C37.8516 38.8186 37.8235 38.9197 37.7927 39.0235C37.773 39.1021 37.7506 39.1807 37.7281 39.2649C37.7113 39.3323 37.6916 39.3996 37.6748 39.4698C37.6523 39.5484 37.6327 39.627 37.613 39.7084C37.5906 39.7898 37.5709 39.8712 37.5485 39.9554C37.4222 40.4634 37.2902 41.0135 37.1724 41.5328C37.1555 41.5974 37.1415 41.6619 37.1246 41.7265C36.8861 42.779 36.7092 43.666 36.7233 43.7838C36.7934 44.3143 37.86 44.9402 38.3905 45.4511C38.427 45.4848 38.4579 45.5184 38.4887 45.5521C38.775 45.8665 39.0333 46.1837 39.2634 46.5092C39.5722 46.9415 39.8332 47.3822 40.0437 47.8256C40.4142 48.6003 40.6387 49.3834 40.7229 50.1525C40.7454 50.377 40.7594 50.5987 40.7566 50.8205C40.7566 51.4829 40.6444 52.1256 40.4254 52.7347C40.2177 53.3045 39.9146 53.8434 39.516 54.3318C39.4346 54.4356 39.3476 54.5339 39.2578 54.6321C38.5561 55.3899 37.6074 56.0158 36.4201 56.4481C36.2237 56.5211 36.0188 56.5884 35.8083 56.6502C35.7016 56.681 35.5949 56.7091 35.4855 56.7372C35.6314 57.8515 35.1599 56.9982 34.562 57.1386C33.6021 57.3603 33.894 58.7946 33.619 59.4878C33.5151 59.7573 33.2681 59.5917 33.2064 59.6366C33.125 59.6955 33.0997 59.8527 32.9622 59.9594C32.9116 59.9959 32.8471 60.0295 32.7601 60.0464C32.7376 60.052 32.7152 60.0548 32.6899 60.0576C31.1181 60.2232 32.6618 57.3856 32.3699 56.5351C29.9589 56.4453 27.7949 54.0258 27.8061 51.6513C27.8117 50.7166 29.7989 50.5342 30.5932 50.3321L30.8936 50.6661C30.7813 51.539 31.5335 53.6525 32.645 53.3943C32.7432 53.3718 32.8359 53.3185 32.9201 53.2427C32.9537 53.209 32.9874 53.1754 33.0183 53.1361C33.0969 53.0378 33.1699 52.9171 33.24 52.7768C33.2821 52.6926 33.3214 52.6028 33.3579 52.5045C33.3832 52.44 33.4084 52.3726 33.4309 52.3025C33.4786 52.1621 33.5235 52.0134 33.5656 51.8562C33.5965 51.7383 33.6274 51.6176 33.6554 51.4913C33.6863 51.3678 33.7144 51.2387 33.7396 51.1068C33.8295 50.6717 33.9109 50.2086 33.9866 49.7567C34.0175 49.5743 34.0484 49.3946 34.0793 49.215C34.1242 48.9511 34.1691 48.6929 34.214 48.4487C34.2308 48.3673 34.2449 48.2887 34.2617 48.2102C34.2786 48.1344 34.2926 48.0586 34.3094 47.9856C34.3178 47.9491 34.3263 47.9126 34.3347 47.8761C34.3599 47.7695 34.3852 47.6684 34.4105 47.573C34.4891 47.2895 34.5733 47.0622 34.6715 46.9134C31.6261 44.6259 29.3414 40.1855 32.1763 36.7584C33.5348 35.1165 34.7782 35.1866 36.5717 34.7291C37.0489 34.6056 37.2594 34.325 37.3857 34.0106C37.4081 33.9545 37.4278 33.8955 37.4474 33.8366C37.4755 33.7468 37.4979 33.6598 37.5232 33.5699C37.5372 33.5166 37.5513 33.4661 37.5653 33.4156C37.6018 33.2949 37.6411 33.1826 37.6944 33.0816C37.7141 33.0451 37.7365 33.0086 37.7618 32.9749C37.7814 32.944 37.8067 32.916 37.8348 32.8907C37.8516 32.871 37.8712 32.8542 37.8937 32.8374C38.1632 32.6269 38.6487 32.5932 39.6255 32.9244L39.2999 34.9986C40.9643 35.7564 43.3473 37.3254 42.9403 39.4445Z" fill="#A8B074"/>
<path d="M87.1359 157.265C87.0405 157.481 86.9479 157.697 86.8553 157.916C86.7682 158.116 86.684 158.315 86.5998 158.517C86.3192 159.191 86.0469 159.87 85.7831 160.555C85.6961 160.776 85.6118 160.998 85.5305 161.223C85.362 161.669 85.1993 162.118 85.0421 162.57C84.8596 163.086 84.6856 163.603 84.5144 164.125C84.3881 164.515 84.2646 164.908 84.1439 165.301C84.0232 165.694 83.9053 166.087 83.793 166.483C83.7088 166.772 83.6303 167.058 83.5517 167.347C83.4955 167.552 83.4394 167.76 83.3861 167.965C83.0212 169.354 82.6984 170.757 82.429 172.169C82.3812 172.411 82.3363 172.655 82.2914 172.899C82.2493 173.135 82.2072 173.371 82.1679 173.606C82.0164 174.504 81.8872 175.403 81.7806 176.306C81.7525 176.528 81.7272 176.747 81.7048 176.969C81.6683 177.286 81.6374 177.606 81.6094 177.926C81.5869 178.142 81.5701 178.361 81.5532 178.577C81.5364 178.768 81.5224 178.959 81.5111 179.147C81.4999 179.282 81.4915 179.414 81.4859 179.545C81.4718 179.778 81.4578 180.009 81.4466 180.239C81.4382 180.444 81.4297 180.646 81.4213 180.851C81.3596 182.574 81.382 184.297 81.4999 186.012C81.455 186.256 80.8235 186.779 80.5849 186.936C78.2188 188.446 73.2872 188.373 71.3 186.139C71.2832 185.774 71.2663 185.409 71.2551 185.044C71.2439 184.687 71.2355 184.334 71.2327 183.977C71.2327 183.744 71.2271 183.511 71.2271 183.276C71.2271 182.9 71.2299 182.523 71.2383 182.145C71.2439 181.858 71.2523 181.569 71.2607 181.283C71.2692 181.05 71.2776 180.82 71.2916 180.587C71.2916 180.519 71.2972 180.452 71.3 180.385C71.3056 180.27 71.3113 180.157 71.3197 180.045C71.3309 179.801 71.3477 179.557 71.3646 179.312C71.387 178.984 71.4123 178.656 71.4404 178.327C71.46 178.072 71.4853 177.816 71.5105 177.561C71.6004 176.626 71.7154 175.692 71.853 174.763C71.8754 174.594 71.9007 174.426 71.9287 174.257C71.9709 173.982 72.013 173.71 72.0607 173.438C72.114 173.112 72.1729 172.79 72.2319 172.467C72.2908 172.141 72.3526 171.818 72.4171 171.498C72.549 170.853 72.6866 170.21 72.8353 169.57C72.9111 169.247 72.9869 168.93 73.0683 168.61C73.1272 168.372 73.1862 168.136 73.2507 167.9C73.2872 167.749 73.3293 167.597 73.3686 167.445C73.436 167.198 73.5034 166.949 73.5735 166.702C73.6521 166.418 73.7335 166.137 73.8205 165.854C73.8935 165.601 73.9693 165.352 74.0479 165.099C74.0956 164.939 74.1433 164.779 74.1966 164.622C74.1994 164.608 74.2022 164.596 74.2079 164.582C74.2836 164.344 74.3594 164.108 74.438 163.872C74.5138 163.637 74.5924 163.406 74.6738 163.173C74.7468 162.955 74.8225 162.736 74.9011 162.517C74.9769 162.301 75.0555 162.082 75.1341 161.865C75.2436 161.56 75.3586 161.254 75.4737 160.95C75.572 160.687 75.6758 160.423 75.7797 160.159C75.8947 159.864 76.0126 159.57 76.1333 159.278C76.1389 159.266 76.1417 159.255 76.1474 159.247C76.2596 158.969 76.3747 158.691 76.4926 158.416C76.7705 157.765 77.0568 157.116 77.3543 156.476C77.4806 156.199 77.6125 155.921 77.7444 155.643C77.7697 155.587 77.7949 155.533 77.823 155.477C78.0812 154.941 78.3451 154.408 78.6145 153.88C78.7633 153.588 78.9148 153.296 79.0664 153.007L87.1359 157.265Z" fill="#F9C65F"/>
<path d="M61.99 108.096L60.6989 118.397C49.8955 122.113 36.6166 117.998 31.3398 107.579C34.8006 106.636 37.9274 104.705 40.5573 102.297C44.9247 108.096 51.8912 110.235 58.9278 108.862C59.9691 108.654 60.9346 108.194 61.99 108.096Z" fill="#F9C65F"/>
<path d="M132.892 183.548C132.892 184.803 130.42 186.391 129.381 186.86C127.764 187.593 125.777 187.932 124.073 187.303C124.006 187.278 122.993 186.661 122.858 186.557C119.1 183.657 114.676 172.627 113.5 167.959C112.886 165.526 112.563 163.044 112.201 160.56L122.036 157.978C122.746 164.529 124.537 171.195 128.056 176.803C128.769 177.94 132.89 182.894 132.892 183.548Z" fill="#F9C65F"/>
<path d="M54.521 28.9107C54.5519 29.8481 53.7941 30.5863 53.4909 31.3582C49.8618 40.6767 46.2129 50.0402 42.8364 59.4289C42.3957 60.6555 42.028 62.7914 41.4498 63.8412C41.1776 64.3408 40.0913 63.9366 39.878 63.7261C39.7601 63.6166 39.864 63.4145 39.8331 63.364C42.9795 53.6188 46.3168 43.927 50.1368 34.426C50.4624 32.8963 49.7523 33.4801 49.2218 32.8542C49.1629 32.784 48.4331 31.3554 48.4135 31.2684C48.2815 30.6761 48.9608 29.8453 48.7531 29.1043C47.9588 28.47 47.142 28.7282 46.1989 28.5205C43.176 27.8581 40.1054 26.9768 37.0095 26.5305C35.3001 26.2863 33.5066 26.1348 31.7917 26.1235C31.2387 28.1332 30.0346 28.7423 28.0642 29.0257C27.3008 32.9749 26.3661 36.9409 25.7851 40.9265C24.9712 46.5064 24.8027 52.1762 24.0954 57.7729C24.0954 57.8094 23.927 57.9245 23.9018 58.0957C23.739 59.3279 23.8316 60.72 23.4751 61.9129C23.1411 61.8792 22.8997 61.6856 22.6471 61.5003L22.4394 61.0849C22.4254 60.9474 22.4478 60.807 22.4394 60.6723C22.751 60.6414 22.751 60.0801 22.4394 60.0492C22.4338 59.9117 22.4422 59.7741 22.4394 59.6366C22.7538 59.0247 22.6977 58.0171 22.7201 57.307C22.7313 56.973 23.0064 56.7091 22.4394 56.5295C22.5629 52.9649 22.8408 48.7996 23.2478 45.2265C23.2927 44.8364 23.666 44.9487 23.6576 44.8448C23.3292 39.961 25.3585 29.2784 27.138 24.8015C27.1885 24.6696 26.9556 24.3945 27.0791 24.2177C27.6853 23.7518 28.3028 23.9791 28.94 23.9904C34.6714 24.1026 41.2618 25.391 47.2908 26.8112C49.6007 27.3557 51.8995 27.976 54.1898 28.6103L54.521 28.9107Z" fill="#A8B074"/>
<path d="M49.2218 32.8542C49.1629 32.784 48.4331 31.3553 48.4135 31.2683C48.2816 30.6761 48.9608 29.8453 48.7531 29.1043C47.9588 28.47 47.142 28.7282 46.1989 28.5205C43.176 27.8581 40.1054 26.9767 37.0095 26.5305C35.3002 26.2863 33.5066 26.1347 31.7917 26.1235C31.2387 28.1331 30.0346 28.7422 28.0643 29.0257C27.3008 32.9749 26.3662 36.9408 25.7851 40.9265C24.9712 46.5064 24.8028 52.1761 24.0955 57.7728L23.8878 61.9157C23.753 61.9072 23.6099 61.9269 23.4752 61.9129C23.1412 61.8792 22.8998 61.6855 22.6472 61.5003H22.4395C22.5658 62.1121 23.4443 62.4237 23.4752 63.2573C22.765 63.3948 22.6921 63.2573 22.4395 63.9843C23.0205 64.22 23.0205 64.6832 24.0955 64.8123C24.1348 64.4418 24.7073 64.5288 24.9291 64.3042C25.221 64.0151 25.0638 62.5977 25.6504 63.771L25.3473 64.1864C26.2006 63.9815 25.802 64.8881 26.5402 65.0593L26.3718 65.4326L26.7788 65.4242C26.7338 64.8572 27.1577 65.02 27.6152 65.02C27.545 64.9638 26.8882 64.1527 26.6889 63.9871C26.0658 63.4819 25.3613 63.058 24.7017 62.6061C25.4371 58.8759 25.2799 55.0053 25.7346 51.233C25.7683 50.9411 25.875 50.7446 25.9479 50.0177C26.6272 43.3038 27.5562 36.6209 29.0915 30.0502C29.8157 29.9884 31.2051 29.5337 31.7412 29.0734C32.3081 28.585 32.3587 27.2434 33.1109 27.1143L47.2852 29.8228C46.8754 31.5995 47.549 33.0759 48.8738 34.2632C46.6621 40.135 44.397 46.0124 42.4266 51.9768C41.3179 55.3309 40.532 59.572 39.2128 62.7409C39.6479 62.6202 39.6451 63.0243 39.8331 63.364C42.9795 53.6188 46.3168 43.9269 50.1369 34.426C50.4625 32.8963 49.7523 33.4801 49.2218 32.8542ZM24.0983 63.5689L23.6829 62.3283L24.2807 62.3479C24.4631 62.4658 24.6765 63.5268 24.0983 63.5689ZM24.407 61.5003V61.2926C24.5417 61.3599 24.5417 61.4301 24.407 61.5003ZM24.7242 60.3691C24.6877 60.6779 24.6849 61.0063 24.306 61.0849C24.7186 59.9369 24.0898 58.1911 24.9207 57.3574C24.8449 58.3145 24.8365 59.4288 24.7242 60.3691ZM24.9207 57.1497H24.7186V56.7371H24.9207V57.1497ZM40.038 61.9129H39.8359V61.2926H40.038V61.9129ZM27.6152 65.02V65.848L27.8201 65.8452C27.7471 65.2922 28.0951 65.5027 28.2383 65.4326C28.1793 65.0593 27.7331 65.1098 27.6152 65.02ZM24.0955 64.8123C23.9944 65.4045 24.4603 65.2193 24.7158 65.4326L24.9207 64.8151C24.654 64.787 24.3649 64.846 24.0955 64.8123Z" fill="#353011"/>
<path d="M16.6855 32.6353C16.9971 35.1137 17.3423 37.5893 17.6735 40.0677C18.2938 44.6736 19.0404 49.3245 19.7646 53.922C19.86 54.531 20.354 55.9316 20.3849 56.2039C20.5561 57.6606 20.1828 59.4036 20.368 60.8772L19.1274 60.5123C16.9802 49.6107 15.1222 38.6306 14.1566 27.541L24.0955 26.0898L23.8653 27.9283C22.8773 28.2455 20.0396 27.8918 19.4671 28.5514C19.2173 29.2952 19.2566 30.3674 18.8047 31.0466C18.4033 31.6557 16.7782 32.1357 16.6855 32.6353Z" fill="#A8B074"/>
<path d="M15.4141 60.7509C15.3748 60.9839 14.1314 61.2786 13.9265 60.9614C10.9204 51.9685 7.34179 43.186 3.17932 34.673C3.18774 34.2015 3.85576 34.0246 4.22064 33.859C6.685 32.7223 9.66301 32.1048 12.1919 31.0607L12.4923 32.9132L8.24277 34.3699C7.95648 34.8302 8.76483 36.3711 8.03787 37.4714C7.78246 37.8559 7.19864 37.8306 7.20426 38.4032C10.3731 45.684 13.2248 53.1024 15.4141 60.7509Z" fill="#A8B074"/>
<path d="M17.2637 60.5656L16.447 60.6583C16.2028 59.6394 16.0316 58.5869 15.8126 57.5652C15.6526 56.8214 15.5179 56.0467 15.3832 55.2973L14.9846 55.2861C14.9678 55.2215 15.0015 55.1429 14.9846 55.0784C14.8218 54.4019 14.7825 53.6778 14.5692 53.0098L14.3615 53.2147C12.7223 48.3337 10.7155 43.5677 8.77319 38.799C9.46647 37.4293 9.83135 36.388 9.85381 34.8302L12.7055 34.165L13.6963 42.7846L17.2637 60.5656Z" fill="#A8B074"/>
<path d="M23.4752 29.1941L20.5786 51.7663L18.0834 33.0619C20.0481 32.4696 19.9302 31.2543 20.7246 29.8706C21.3449 28.7928 22.389 29.2839 23.4752 29.1941Z" fill="#A8B074"/>
<path d="M110.126 157.975C107.48 158.068 104.488 158.079 101.844 157.975H110.126Z" fill="#A8B074"/>
<path d="M34.0343 63.364L33.7256 64.192C33.5544 63.5689 33.2625 63.771 32.7095 63.7935C32.3475 63.8075 32.1005 64.3043 32.1706 63.5689C32.9734 63.3668 33.3242 63.4426 34.0343 63.364Z" fill="#353011"/>
<path d="M36.9337 63.1563L35.3872 63.5745L35.2777 63.1563C35.8222 63.1339 36.3892 63.1339 36.9337 63.1563Z" fill="#353011"/>
<path d="M38.7975 63.364C38.3484 63.7485 37.4783 63.9113 37.5569 63.1563C37.9779 63.19 38.3764 63.3331 38.7975 63.364Z" fill="#353011"/>
<path d="M37.3464 63.5717V63.9815H37.0432L36.7289 63.6728L37.3464 63.5717Z" fill="#353011"/>
<path d="M169.743 119.368C169.367 119.216 169.285 118.854 169.122 118.54C169.442 118.686 169.647 119.045 169.743 119.368Z" fill="#353011"/>
<path d="M164.253 115.015L164.157 114.916L164.466 114.608C164.671 114.745 164.368 114.883 164.253 115.015Z" fill="#353011"/>
<path d="M37.453 64.3997V64.192C37.5877 64.2594 37.5877 64.3296 37.453 64.3997Z" fill="#353011"/>
<path d="M160.113 21.5063L159.593 20.9871C159.745 21.133 160.051 21.1948 160.113 21.5063Z" fill="#353011"/>
<path d="M101.844 157.975C104.488 158.079 107.48 158.068 110.126 157.975H101.844Z" fill="#353011"/>
<path d="M156.489 107.56L154.625 106.322L156.489 107.562C156.517 107.627 156.562 107.621 156.624 107.551C156.582 107.548 156.537 107.551 156.489 107.56Z" fill="#353011"/>
<path d="M158.743 155.477C158.193 161.307 152.683 164.445 147.586 165.753C146.741 166.547 147.81 166.716 148.518 166.789C150.929 167.03 153.432 166.098 155.352 164.72C155.568 167.078 152.621 169.233 150.645 169.952C147.238 171.198 142.259 170.429 140.504 166.935C140.322 166.575 139.716 164.706 139.716 164.408V160.782C138.742 160.953 138.183 162.761 138.082 163.603C137.877 165.301 138.343 166.438 138.683 168.032C137.406 168.125 136.314 167.861 135.16 167.409C133.861 166.901 133.56 166.564 132.676 165.545C130.001 162.466 130.501 159.101 131.433 155.399C131.551 154.933 131.82 154.36 131.899 153.891C132.112 152.656 130.546 154.456 130.195 154.885C128.803 156.606 127.989 159.017 128.328 161.195C127.413 161.139 127.057 160.42 126.67 159.749C124.239 156.634 124.256 151.809 126.465 148.567C127.773 145.491 130.543 142.639 133.504 141.109C136.224 139.063 139.907 138.488 143.238 138.213V141.213C143.238 141.923 144.322 143.355 144.274 144.216C147.055 148.581 150.567 151.823 155.818 152.861C158.207 153.336 159.052 152.207 158.743 155.477Z" fill="white"/>
<path d="M41.0738 97.59L39.8332 98.9822C38.587 100.807 37.1639 101.963 35.2778 103.122C31.1686 105.651 23.3545 108.082 21.4038 101.882C22.2908 101.674 23.1945 101.626 24.0955 101.466C29.3358 100.529 32.2633 98.4685 36.3135 95.2548C36.8833 94.4436 37.6944 93.871 38.3849 93.1833C38.5224 93.0486 38.6656 92.9055 38.7975 92.7679L39.8332 91.7322C40.1054 91.4403 40.2261 91.1316 40.6612 90.6965C40.7314 90.6292 40.7959 90.5478 40.8689 90.4916C40.9391 90.4355 40.9896 90.3344 41.0766 90.2839C41.3348 90.1296 41.259 89.9696 41.4976 90.3822C42.8814 92.7455 42.3116 95.3305 41.0738 97.59Z" fill="white"/>
<path d="M26.7844 67.4001C25.6953 68.2787 25.1733 69.5445 24.5109 70.729C24.0646 71.0097 23.3573 70.308 23.0598 70.1957C18.6306 68.5369 14.8695 68.5341 10.4292 70.1957C10.3787 70.5017 7.15648 71.5851 6.78037 72.2475C6.27515 72.3205 6.19656 71.5374 6.19656 71.2062C6.18253 67.7314 11.3582 64.5288 14.3166 63.6278C17.4041 62.6904 19.4951 62.7858 22.4395 63.9843C23.0205 64.2201 23.0205 64.6832 24.0955 64.8123C23.9944 65.4045 24.4603 65.2193 24.7158 65.4326C25.4483 66.0473 26.122 66.7125 26.7844 67.4001Z" fill="white"/>
<path d="M27.4075 80.3563L27.1998 81.378C22.1868 76.8422 14.2549 77.3081 8.56549 80.3423C8.54584 80.3563 8.52339 80.3759 8.49532 80.3984C8.46725 80.4208 8.43357 80.4489 8.39989 80.4798C7.93396 80.8812 6.88984 81.8719 6.63722 81.9842C6.6288 81.987 6.62319 81.9898 6.61477 81.9926C6.60916 81.9955 6.60354 81.9954 6.59793 81.9954C2.69088 77.1004 8.27078 73.3365 12.6606 72.1184C14.6422 71.5682 17.2918 71.3717 19.3323 71.6468C19.8123 71.7114 23.666 73.0783 23.7923 73.2916C23.5706 74.3582 23.6576 75.1693 23.8878 76.2022C24.1151 77.2183 24.5024 77.7656 24.9235 78.6862C24.9964 78.7508 25.0638 78.8266 25.1312 78.8939C25.1985 78.9613 25.2659 79.0399 25.3389 79.1016C25.9451 79.6097 26.6272 80.1542 27.4075 80.3563Z" fill="white"/>
<path d="M43.7683 80.5499C40.8632 89.9808 28.6733 100.851 18.2489 99.1337C8.84338 97.5872 0.218111 86.3684 12.2929 81.5857C14.9622 80.5303 17.3058 80.2552 20.1604 80.7576C22.3328 81.1394 26.0855 82.5652 26.3746 85.1054C26.6497 87.5389 24.5221 89.1415 22.3946 89.7197C19.4137 90.5309 16.2673 89.9499 13.3286 89.2482C13.1209 89.324 12.8178 89.0545 12.916 89.5569C14.3643 91.2803 16.548 92.0438 18.7121 92.3553C21.1231 92.7005 22.8717 92.3693 25.1312 91.5273C26.9724 90.3737 28.6397 88.7486 28.8558 86.4498C28.9428 85.5236 28.6341 84.5159 28.6958 83.8086C28.7604 83.0676 29.4929 82.0319 29.4985 81.1899C30.3574 81.5127 30.7644 80.7969 30.8711 80.7661C31.3651 80.6313 31.991 80.7043 32.6309 80.4938C35.7493 79.4581 38.7918 76.2415 38.5925 72.7976L38.0733 72.6769C36.945 74.6332 35.6623 76.3706 33.6217 77.4456C31.1798 78.7283 26.9696 79.0764 26.0995 75.7503C25.6111 73.881 26.2707 72.3653 27.2026 70.8188C28.5695 68.5453 30.7335 66.4767 33.3719 65.9097C39.9595 64.4979 44.2679 67.5292 44.5963 74.3385C44.7001 76.5026 44.4054 78.487 43.7683 80.5499Z" fill="white"/>
<path d="M161.047 110.67V110.877C160.873 110.807 160.747 110.715 160.637 110.563C160.75 110.375 160.873 110.628 161.047 110.67Z" fill="#353011"/>
<path d="M115.799 80.1093C114.177 83.6346 112.08 87.2105 109.84 90.2166C105.902 95.499 100.008 100.638 93.7796 96.7339C89.4628 94.0282 87.1584 85.1279 87.5289 79.708C86.656 79.2448 84.7446 78.2372 84.8119 76.932C84.9242 74.754 86.8974 77.1285 87.6103 77.6141C89.1175 78.6442 91.784 79.9858 93.4344 80.6735C99.8591 83.3512 107.362 82.6944 113.239 78.9642C113.281 78.6694 111.524 77.7993 111.179 77.906C111.26 76.9994 117.682 77.3025 114.895 76.5924C116.571 77.019 118.429 79.3627 118.342 81.451C118.325 81.8636 118.1 83.2249 117.592 82.9975C117.343 82.8852 116.273 79.7978 115.804 80.1093H115.799ZM97.5491 89.237C95.7135 89.5121 93.76 91.1653 92.539 92.7258C96.8109 99.4228 104.676 95.0835 107.923 89.6215L97.5491 89.237Z" fill="#353011"/>
<path d="M82.3925 69.8393L81.9939 69.6147C82.0164 69.6484 82.0388 69.6765 82.0613 69.6989C82.0725 69.7102 82.0837 69.7214 82.0949 69.7326C82.1062 69.7439 82.1174 69.7523 82.1286 69.7607C82.2044 69.814 82.2858 69.8309 82.3925 69.8449C82.3953 69.8449 82.4009 69.8449 82.4037 69.8449L82.3953 69.8393H82.3925ZM92.3229 71.1473C92.2892 71.0939 92.2527 71.0406 92.2162 70.9873C92.1517 70.8974 92.0843 70.8048 92.0141 70.715C91.9833 70.6757 91.9524 70.6364 91.9215 70.5999C91.7699 70.4147 91.6071 70.2322 91.4331 70.061C91.391 70.0189 91.3461 69.9768 91.304 69.9347C91.2647 69.8982 91.2282 69.8617 91.1889 69.8281C91.1805 69.8196 91.1749 69.814 91.1665 69.8056C91.0458 69.699 90.9251 69.5951 90.7988 69.5025C90.782 69.4884 90.7623 69.4716 90.7398 69.4576C90.6079 69.3593 90.476 69.2723 90.3441 69.1965C90.2487 69.1179 90.1139 69.0085 90.0297 68.9411C89.996 68.913 89.9708 68.8906 89.9624 68.8794C89.7855 68.6829 89.547 68.5847 89.314 68.5145C88.4411 68.245 87.5289 68.2647 86.6335 68.3348C86.4118 68.3517 86.1844 68.3741 85.9767 68.4696C85.6764 68.6071 85.4827 68.8513 85.2638 69.1095C85.0505 69.3593 84.8063 69.5642 84.5986 69.8168C84.4583 69.9909 84.3712 70.1705 84.2758 70.3726C84.172 70.5915 84.026 70.7543 83.9474 70.9985C83.8941 71.1641 83.8913 71.3465 83.8492 71.5149C83.8408 71.5542 83.8295 71.5907 83.8155 71.63C83.8155 71.6356 83.8099 71.6412 83.8099 71.6469C83.678 72.0061 83.5685 72.3626 83.518 72.7527V72.7668C83.5096 72.8173 83.5011 72.8678 83.4983 72.9211C83.4927 72.9745 83.4899 73.025 83.4871 73.0755C83.4871 73.112 83.4815 73.1485 83.4815 73.185C83.4759 73.3001 83.4759 73.4151 83.4815 73.533C83.4815 73.5667 83.4815 73.6004 83.4815 73.6313C83.4843 73.6818 83.4871 73.7323 83.4927 73.7856C83.4927 73.8081 83.4955 73.8305 83.4983 73.853C83.5011 73.9148 83.5096 73.9765 83.518 74.0382C83.5236 74.0803 83.5292 74.1225 83.5376 74.1646C83.5489 74.2488 83.5629 74.3302 83.5797 74.4144C83.5882 74.4565 83.5966 74.4958 83.605 74.5407C83.6246 74.6221 83.6443 74.7035 83.6639 74.7877C83.6836 74.8691 83.7088 74.9505 83.7313 75.0319C83.7566 75.1104 83.7818 75.1918 83.8099 75.2732C83.8379 75.3518 83.866 75.4304 83.8969 75.509C83.9278 75.5876 83.9586 75.6634 83.9923 75.742C84.0232 75.8178 84.0597 75.8935 84.0962 75.9693C84.1299 76.0451 84.1663 76.1181 84.2056 76.1911C84.2421 76.264 84.2814 76.337 84.3207 76.41C84.36 76.483 84.3993 76.5531 84.4414 76.6233C84.5116 76.7384 84.5818 76.8535 84.6575 76.9657C84.6828 77.0022 84.7053 77.0359 84.7305 77.0724C84.7558 77.1089 84.781 77.1454 84.8063 77.179C84.8316 77.2155 84.8568 77.2492 84.8821 77.2829C84.913 77.3278 84.9438 77.3699 84.9775 77.412C85.4547 78.0323 86.016 78.5712 86.6307 78.9754C86.7037 79.0259 86.7767 79.0708 86.8524 79.1157C86.8974 79.1438 86.9423 79.1691 86.9872 79.1943C87.0321 79.2196 87.077 79.2448 87.1219 79.2673C87.6159 79.5227 90.1055 80.4798 89.7968 79.1185C89.6761 78.5824 88.7049 78.5796 88.2923 78.3888C86.2349 77.4597 83.2289 73.9737 84.941 71.1669C85.1768 70.7824 85.5978 70.642 85.988 70.527C87.2538 70.1508 88.6797 69.8 89.8192 70.6027C90.9728 71.4167 91.638 73.2973 92.9628 73.4432C93.2154 72.6292 92.7355 71.79 92.3257 71.1613L92.3229 71.1473Z" fill="#353011"/>
<path d="M133.56 31.4957C135.138 33.017 136.033 35.7143 134.68 37.0559C134.225 37.0082 134.049 36.8089 133.832 36.5563C132.418 34.8779 132.83 33.9769 130.102 32.3854C129.788 32.2002 128.342 31.535 127.966 31.4311C127.357 31.2627 126.397 31.0438 125.78 30.9568C124.685 30.8024 123.402 31.2824 123.004 30.1091C125.266 27.9114 131.043 29.0706 133.557 31.4957H133.56Z" fill="#353011"/>
<path d="M82.9679 32.6156C83.0184 30.1653 86.8665 27.8385 90.6304 27.8637C93.179 27.8806 95.4609 29.152 95.0848 30.9035C94.922 31.6613 92.7327 30.6733 91.9917 30.5386C90.4312 30.2523 87.877 30.3898 86.3697 30.8389C85.0084 31.2459 83.9671 31.9139 82.9651 32.6184L82.9679 32.6156Z" fill="#353011"/>
<path d="M33.2064 59.6366C33.0885 59.7236 33.0885 60.0183 32.6899 60.0604C31.1181 60.2232 32.6618 57.3884 32.3699 56.5379C29.9561 56.4453 27.7921 54.0286 27.8061 51.6541C27.8117 50.7166 29.7961 50.537 30.5932 50.3349L30.8936 50.6689C30.7841 51.5418 31.5363 53.6553 32.645 53.3971C33.9053 53.1052 33.9726 47.9688 34.6715 46.919C31.6261 44.6287 29.3414 40.1912 32.1763 36.7641C33.5319 35.1221 34.7782 35.1923 36.5717 34.7348C38.2474 34.3081 36.6447 31.9167 39.6283 32.93L39.3027 35.007C40.9671 35.7649 43.3501 37.3339 42.9431 39.453C42.8028 40.1799 40.7763 40.601 40.0437 40.8002C39.9258 39.5989 39.6171 37.9766 38.1828 37.9036C37.933 38.0748 36.684 43.4919 36.7261 43.7923C36.8019 44.3592 38.0144 45.0357 38.4944 45.5606C42.3677 49.81 41.2282 55.2805 35.4883 56.7456C35.0588 56.8551 33.8744 56.9365 33.7172 57.1498L33.2092 59.645L33.2064 59.6366ZM36.7261 37.4798C34.2786 37.2188 33.2906 40.2164 34.562 42.024C34.882 42.4787 35.3115 42.9839 35.6455 42.3019C35.8026 41.9819 36.9029 37.651 36.7233 37.4798H36.7261ZM37.0769 49.1364C37.0208 49.0354 36.7513 48.9876 36.6559 48.8445C36.3921 48.4572 36.3584 47.7583 35.696 47.8312L34.4526 53.835C36.9338 54.1465 38.1267 51.0029 37.0769 49.1364Z" fill="#353011"/>
<path d="M24.306 61.0849C24.7214 59.9369 24.0899 58.1911 24.9235 57.3575C24.8477 58.3146 24.8393 59.4289 24.727 60.3692C24.6906 60.6807 24.6878 61.0063 24.306 61.0849Z" fill="#353011"/>
<path d="M24.2807 62.348C24.4631 62.4658 24.6765 63.5268 24.0983 63.5717L23.6829 62.3311L24.2807 62.3508V62.348Z" fill="#353011"/>
<path d="M40.038 61.2926H39.8359V61.9129H40.038V61.2926Z" fill="#353011"/>
<path d="M24.9207 56.7372H24.7186V57.1498H24.9207V56.7372Z" fill="#353011"/>
<path d="M24.407 61.2926C24.5417 61.3628 24.5417 61.4301 24.407 61.5003V61.2926Z" fill="#353011"/>
<path d="M107.923 89.6215C104.673 95.0835 96.8082 99.4228 92.5391 92.7258C93.76 91.1652 95.7164 89.512 97.5492 89.237C97.5492 89.237 103.042 87.101 107.923 89.6215Z" fill="#F9C65F"/>
<path d="M131.455 122.98L131.871 118.009C135.396 117.555 134.7 123.766 131.455 122.98Z" fill="#F9C65F"/>
<path d="M84.2422 125.052V120.392C84.2422 120.255 84.5902 120.098 84.7643 120.07C87.0181 119.719 87.4672 126.02 84.2422 125.052Z" fill="#F9C65F"/>
<path d="M85.5614 117.33C85.4127 117.35 84.7615 117.215 84.6941 117.139C84.1468 116.527 84.8485 113.92 84.6576 113.039C87.2034 112.514 87.3718 117.094 85.5614 117.33Z" fill="#F9C65F"/>
<path d="M72.6417 112.528C72.3021 108.382 69.9135 107.804 66.1468 107.894L65.6304 124.092L68.0863 124.844L68.2996 118.217C72.246 119.371 72.8915 115.567 72.6417 112.528ZM69.5402 115.629C69.1922 115.798 68.2968 115.778 68.2968 115.422V111.074C68.5045 110.372 69.6497 111.015 69.9304 111.512C70.3374 112.236 70.4665 115.18 69.5402 115.629Z" fill="white"/>
<path d="M69.5403 115.629C69.1922 115.798 68.2969 115.778 68.2969 115.422V111.074C68.5046 110.372 69.6497 111.015 69.9304 111.512C70.3374 112.236 70.4665 115.18 69.5403 115.629Z" fill="#F9C65F"/>
<path d="M37.0769 49.1364C38.1266 51.0029 36.9337 54.1493 34.4525 53.835L35.6959 47.8312C36.3583 47.7582 36.392 48.4571 36.6558 48.8445C36.7541 48.9876 37.0207 49.0353 37.0769 49.1364Z" fill="#A8B074"/>
<path d="M36.726 37.4798C36.9028 37.651 35.8053 41.9819 35.6482 42.3018C35.3114 42.9839 34.8847 42.4787 34.5647 42.024C33.2933 40.2164 34.2785 37.2188 36.7288 37.4798H36.726Z" fill="#A8B074"/>
<path d="M108.173 15.2444C108.389 16.224 103.463 19.0925 102.972 19.8896C102.702 20.3303 102.495 21.4053 103.132 21.5905C103.732 21.7646 107.929 18.6855 108.818 18.2168C109.127 18.054 109.304 17.8603 109.728 17.9642C110.27 18.5255 107.67 26.6877 107.668 28.2426C107.668 29.0903 108.341 29.7078 109.099 29.1324C110.211 28.2847 111.49 20.8888 112.45 19.2581C112.739 18.7978 113.006 19.2525 113.214 19.5332C114.003 20.5969 115.207 24.111 116.217 24.5714C116.832 24.8548 117.41 24.7987 117.519 24.0465C117.738 22.5729 114.704 17.2148 115.179 16.6646C116.394 16.8836 117.604 17.1642 118.805 17.4421C120.231 17.7677 122.358 18.6125 123.649 18.7276C124.214 18.7781 124.253 18.6743 124.511 18.2196C124.539 18.1606 124.494 18.0512 124.511 17.9614C124.671 17.3439 123.944 17.4168 123.734 16.9229C123.652 16.9004 123.551 16.9481 123.475 16.9229C123.024 16.7797 122.619 16.572 122.179 16.4036C120.904 15.9152 119.686 15.2949 118.373 14.8935L116.725 13.9364C116.916 12.5358 122.751 10.849 122.9 9.23225C122.99 8.24987 121.915 7.84289 121.076 8.16567L114.662 10.9556C114.134 10.3606 116.517 4.98277 115.917 3.47552L114.572 3.20326C114.179 3.32396 114.345 0.702414 114.196 1.03081C113.657 2.23773 112.001 9.62239 111.415 9.91711L107.28 3.93303C107.059 3.56253 106.009 3.78988 105.88 3.99478C105.212 5.0389 108.072 9.41188 108.555 10.7058C108.709 11.1156 109.172 11.8285 108.695 12.1317C108.086 12.519 102.062 10.9219 100.771 10.9444C99.9265 10.9584 99.4802 11.5282 99.6346 12.3562L108.17 15.2388L108.173 15.2444Z" fill="#EDF2D9"/>
<path d="M123.262 67.1503C121.822 66.3981 121.065 65.8424 119.942 64.8011C119.566 63.0861 118.314 61.3796 118.297 59.4766C118.289 58.7131 118.586 57.7308 118.755 56.9645C119.403 53.9865 120.495 51.3369 123.203 49.316C123.344 49.2739 123.484 49.1869 123.61 49.1616C127.697 48.2971 130.678 50.0458 131.764 53.4953C131.817 53.6609 131.455 54.2054 132 54.4693C131.688 59.9201 129.628 65.5926 123.265 67.1503H123.262Z" fill="#353011"/>
<path d="M89.4067 63.0244C88.1044 62.3423 87.4195 61.8399 86.4006 60.8996C86.0582 59.3475 84.9271 57.8009 84.9102 56.0804C84.9046 55.3899 85.1741 54.5001 85.3228 53.8069C85.9095 51.1123 86.8975 48.7125 89.3506 46.8853C89.4769 46.846 89.6032 46.7702 89.7183 46.745C93.4176 45.9619 96.1178 47.5449 97.0973 50.6689C97.145 50.8204 96.8166 51.3116 97.3106 51.5502C97.03 56.4845 95.1635 61.6182 89.4039 63.03L89.4067 63.0244Z" fill="#353011"/>
</g>
<defs>
<clipPath id="clip0_3379_6985">
<rect width="172.112" height="208" fill="white" transform="translate(0.2771 0.345947)"/>
</clipPath>
</defs>
</svg>
